<mxfile host="app.diagrams.net" agent="Mozilla/5.0 (Windows NT 10.0; Win64; x64) AppleWebKit/537.36 (KHTML, like Gecko) Chrome/136.0.0.0 Safari/537.36 Edg/136.0.0.0" version="27.0.2" pages="2">
  <diagram name="Page-1" id="IHvo7kZub00eSyfO-Gqo">
    <mxGraphModel grid="1" page="1" gridSize="10" guides="1" tooltips="1" connect="1" arrows="1" fold="1" pageScale="1" pageWidth="827" pageHeight="1169" math="0" shadow="0">
      <root>
        <mxCell id="0" />
        <mxCell id="1" parent="0" />
        <mxCell id="DJSqWrPiY0EJvNpJrQ70-1" value="&lt;&lt;abstract&gt;&gt;&#xa;User" style="swimlane;fontStyle=1;align=center;verticalAlign=top;childLayout=stackLayout;horizontal=1;startSize=56.727272727272734;horizontalStack=0;resizeParent=1;resizeParentMax=0;resizeLast=0;collapsible=0;marginBottom=0;" vertex="1" parent="1">
          <mxGeometry x="428" y="20" width="178" height="216.72727272727275" as="geometry" />
        </mxCell>
        <mxCell id="DJSqWrPiY0EJvNpJrQ70-2" value="- id: String" style="text;strokeColor=none;fillColor=none;align=left;verticalAlign=top;spacingLeft=4;spacingRight=4;overflow=hidden;rotatable=0;points=[[0,0.5],[1,0.5]];portConstraint=eastwest;" vertex="1" parent="DJSqWrPiY0EJvNpJrQ70-1">
          <mxGeometry y="56.727272727272734" width="178" height="38" as="geometry" />
        </mxCell>
        <mxCell id="DJSqWrPiY0EJvNpJrQ70-3" value="- name: String" style="text;strokeColor=none;fillColor=none;align=left;verticalAlign=top;spacingLeft=4;spacingRight=4;overflow=hidden;rotatable=0;points=[[0,0.5],[1,0.5]];portConstraint=eastwest;" vertex="1" parent="DJSqWrPiY0EJvNpJrQ70-1">
          <mxGeometry y="94.72727272727273" width="178" height="38" as="geometry" />
        </mxCell>
        <mxCell id="DJSqWrPiY0EJvNpJrQ70-4" value="- email: String" style="text;strokeColor=none;fillColor=none;align=left;verticalAlign=top;spacingLeft=4;spacingRight=4;overflow=hidden;rotatable=0;points=[[0,0.5],[1,0.5]];portConstraint=eastwest;" vertex="1" parent="DJSqWrPiY0EJvNpJrQ70-1">
          <mxGeometry y="132.72727272727275" width="178" height="38" as="geometry" />
        </mxCell>
        <mxCell id="DJSqWrPiY0EJvNpJrQ70-5" style="line;strokeWidth=1;fillColor=none;align=left;verticalAlign=middle;spacingTop=-1;spacingLeft=3;spacingRight=3;rotatable=0;labelPosition=right;points=[];portConstraint=eastwest;strokeColor=inherit;" vertex="1" parent="DJSqWrPiY0EJvNpJrQ70-1">
          <mxGeometry y="170.72727272727275" width="178" height="8" as="geometry" />
        </mxCell>
        <mxCell id="DJSqWrPiY0EJvNpJrQ70-6" value="+ login() : : void" style="text;strokeColor=none;fillColor=none;align=left;verticalAlign=top;spacingLeft=4;spacingRight=4;overflow=hidden;rotatable=0;points=[[0,0.5],[1,0.5]];portConstraint=eastwest;" vertex="1" parent="DJSqWrPiY0EJvNpJrQ70-1">
          <mxGeometry y="178.72727272727275" width="178" height="38" as="geometry" />
        </mxCell>
        <mxCell id="DJSqWrPiY0EJvNpJrQ70-7" value="Customer" style="swimlane;fontStyle=1;align=center;verticalAlign=top;childLayout=stackLayout;horizontal=1;startSize=45.333333333333336;horizontalStack=0;resizeParent=1;resizeParentMax=0;resizeLast=0;collapsible=0;marginBottom=0;" vertex="1" parent="1">
          <mxGeometry x="540" y="303.62" width="237" height="143.33333333333334" as="geometry" />
        </mxCell>
        <mxCell id="DJSqWrPiY0EJvNpJrQ70-8" value="- shippingAddress: String" style="text;strokeColor=none;fillColor=none;align=left;verticalAlign=top;spacingLeft=4;spacingRight=4;overflow=hidden;rotatable=0;points=[[0,0.5],[1,0.5]];portConstraint=eastwest;" vertex="1" parent="DJSqWrPiY0EJvNpJrQ70-7">
          <mxGeometry y="45.333333333333336" width="237" height="45" as="geometry" />
        </mxCell>
        <mxCell id="DJSqWrPiY0EJvNpJrQ70-9" style="line;strokeWidth=1;fillColor=none;align=left;verticalAlign=middle;spacingTop=-1;spacingLeft=3;spacingRight=3;rotatable=0;labelPosition=right;points=[];portConstraint=eastwest;strokeColor=inherit;" vertex="1" parent="DJSqWrPiY0EJvNpJrQ70-7">
          <mxGeometry y="90.33333333333334" width="237" height="8" as="geometry" />
        </mxCell>
        <mxCell id="DJSqWrPiY0EJvNpJrQ70-10" value="+ placeOrder() : : void" style="text;strokeColor=none;fillColor=none;align=left;verticalAlign=top;spacingLeft=4;spacingRight=4;overflow=hidden;rotatable=0;points=[[0,0.5],[1,0.5]];portConstraint=eastwest;" vertex="1" parent="DJSqWrPiY0EJvNpJrQ70-7">
          <mxGeometry y="98.33333333333334" width="237" height="45" as="geometry" />
        </mxCell>
        <mxCell id="DJSqWrPiY0EJvNpJrQ70-11" value="Admin" style="swimlane;fontStyle=1;align=center;verticalAlign=top;childLayout=stackLayout;horizontal=1;startSize=40.57142857142857;horizontalStack=0;resizeParent=1;resizeParentMax=0;resizeLast=0;collapsible=0;marginBottom=0;" vertex="1" parent="1">
          <mxGeometry x="260" y="310" width="232" height="130.57142857142856" as="geometry" />
        </mxCell>
        <mxCell id="DJSqWrPiY0EJvNpJrQ70-12" style="line;strokeWidth=1;fillColor=none;align=left;verticalAlign=middle;spacingTop=-1;spacingLeft=3;spacingRight=3;rotatable=0;labelPosition=right;points=[];portConstraint=eastwest;strokeColor=inherit;" vertex="1" parent="DJSqWrPiY0EJvNpJrQ70-11">
          <mxGeometry y="40.57142857142857" width="232" height="8" as="geometry" />
        </mxCell>
        <mxCell id="DJSqWrPiY0EJvNpJrQ70-13" value="+ addProduct() : : void" style="text;strokeColor=none;fillColor=none;align=left;verticalAlign=top;spacingLeft=4;spacingRight=4;overflow=hidden;rotatable=0;points=[[0,0.5],[1,0.5]];portConstraint=eastwest;" vertex="1" parent="DJSqWrPiY0EJvNpJrQ70-11">
          <mxGeometry y="48.57142857142857" width="232" height="41" as="geometry" />
        </mxCell>
        <mxCell id="DJSqWrPiY0EJvNpJrQ70-14" value="+ manageOrders() : : void" style="text;strokeColor=none;fillColor=none;align=left;verticalAlign=top;spacingLeft=4;spacingRight=4;overflow=hidden;rotatable=0;points=[[0,0.5],[1,0.5]];portConstraint=eastwest;" vertex="1" parent="DJSqWrPiY0EJvNpJrQ70-11">
          <mxGeometry y="89.57142857142857" width="232" height="41" as="geometry" />
        </mxCell>
        <mxCell id="DJSqWrPiY0EJvNpJrQ70-15" value="Product" style="swimlane;fontStyle=1;align=center;verticalAlign=top;childLayout=stackLayout;horizontal=1;startSize=34.666666666666664;horizontalStack=0;resizeParent=1;resizeParentMax=0;resizeLast=0;collapsible=0;marginBottom=0;" vertex="1" parent="1">
          <mxGeometry x="20" y="508" width="218" height="217.66666666666666" as="geometry" />
        </mxCell>
        <mxCell id="DJSqWrPiY0EJvNpJrQ70-16" value="- id: String" style="text;strokeColor=none;fillColor=none;align=left;verticalAlign=top;spacingLeft=4;spacingRight=4;overflow=hidden;rotatable=0;points=[[0,0.5],[1,0.5]];portConstraint=eastwest;" vertex="1" parent="DJSqWrPiY0EJvNpJrQ70-15">
          <mxGeometry y="34.666666666666664" width="218" height="35" as="geometry" />
        </mxCell>
        <mxCell id="DJSqWrPiY0EJvNpJrQ70-17" value="- name: String" style="text;strokeColor=none;fillColor=none;align=left;verticalAlign=top;spacingLeft=4;spacingRight=4;overflow=hidden;rotatable=0;points=[[0,0.5],[1,0.5]];portConstraint=eastwest;" vertex="1" parent="DJSqWrPiY0EJvNpJrQ70-15">
          <mxGeometry y="69.66666666666666" width="218" height="35" as="geometry" />
        </mxCell>
        <mxCell id="DJSqWrPiY0EJvNpJrQ70-18" value="- price: Float" style="text;strokeColor=none;fillColor=none;align=left;verticalAlign=top;spacingLeft=4;spacingRight=4;overflow=hidden;rotatable=0;points=[[0,0.5],[1,0.5]];portConstraint=eastwest;" vertex="1" parent="DJSqWrPiY0EJvNpJrQ70-15">
          <mxGeometry y="104.66666666666666" width="218" height="35" as="geometry" />
        </mxCell>
        <mxCell id="DJSqWrPiY0EJvNpJrQ70-19" value="- stock: Integer" style="text;strokeColor=none;fillColor=none;align=left;verticalAlign=top;spacingLeft=4;spacingRight=4;overflow=hidden;rotatable=0;points=[[0,0.5],[1,0.5]];portConstraint=eastwest;" vertex="1" parent="DJSqWrPiY0EJvNpJrQ70-15">
          <mxGeometry y="139.66666666666666" width="218" height="35" as="geometry" />
        </mxCell>
        <mxCell id="DJSqWrPiY0EJvNpJrQ70-20" style="line;strokeWidth=1;fillColor=none;align=left;verticalAlign=middle;spacingTop=-1;spacingLeft=3;spacingRight=3;rotatable=0;labelPosition=right;points=[];portConstraint=eastwest;strokeColor=inherit;" vertex="1" parent="DJSqWrPiY0EJvNpJrQ70-15">
          <mxGeometry y="174.66666666666666" width="218" height="8" as="geometry" />
        </mxCell>
        <mxCell id="DJSqWrPiY0EJvNpJrQ70-21" value="+ getDetails() : : String" style="text;strokeColor=none;fillColor=none;align=left;verticalAlign=top;spacingLeft=4;spacingRight=4;overflow=hidden;rotatable=0;points=[[0,0.5],[1,0.5]];portConstraint=eastwest;" vertex="1" parent="DJSqWrPiY0EJvNpJrQ70-15">
          <mxGeometry y="182.66666666666666" width="218" height="35" as="geometry" />
        </mxCell>
        <mxCell id="DJSqWrPiY0EJvNpJrQ70-22" value="Category" style="swimlane;fontStyle=1;align=center;verticalAlign=top;childLayout=stackLayout;horizontal=1;startSize=38.857142857142854;horizontalStack=0;resizeParent=1;resizeParentMax=0;resizeLast=0;collapsible=0;marginBottom=0;" vertex="1" parent="1">
          <mxGeometry x="49" y="289" width="159" height="135.85714285714286" as="geometry" />
        </mxCell>
        <mxCell id="DJSqWrPiY0EJvNpJrQ70-23" value="- id: String" style="text;strokeColor=none;fillColor=none;align=left;verticalAlign=top;spacingLeft=4;spacingRight=4;overflow=hidden;rotatable=0;points=[[0,0.5],[1,0.5]];portConstraint=eastwest;" vertex="1" parent="DJSqWrPiY0EJvNpJrQ70-22">
          <mxGeometry y="38.857142857142854" width="159" height="39" as="geometry" />
        </mxCell>
        <mxCell id="DJSqWrPiY0EJvNpJrQ70-24" value="- name: String" style="text;strokeColor=none;fillColor=none;align=left;verticalAlign=top;spacingLeft=4;spacingRight=4;overflow=hidden;rotatable=0;points=[[0,0.5],[1,0.5]];portConstraint=eastwest;" vertex="1" parent="DJSqWrPiY0EJvNpJrQ70-22">
          <mxGeometry y="77.85714285714286" width="159" height="39" as="geometry" />
        </mxCell>
        <mxCell id="DJSqWrPiY0EJvNpJrQ70-25" style="line;strokeWidth=1;fillColor=none;align=left;verticalAlign=middle;spacingTop=-1;spacingLeft=3;spacingRight=3;rotatable=0;labelPosition=right;points=[];portConstraint=eastwest;strokeColor=inherit;" vertex="1" parent="DJSqWrPiY0EJvNpJrQ70-22">
          <mxGeometry y="116.85714285714286" width="159" height="19" as="geometry" />
        </mxCell>
        <mxCell id="DJSqWrPiY0EJvNpJrQ70-32" value="OrderItem" style="swimlane;fontStyle=1;align=center;verticalAlign=top;childLayout=stackLayout;horizontal=1;startSize=38.857142857142854;horizontalStack=0;resizeParent=1;resizeParentMax=0;resizeLast=0;collapsible=0;marginBottom=0;" vertex="1" parent="1">
          <mxGeometry x="82" y="800" width="195" height="135.85714285714286" as="geometry" />
        </mxCell>
        <mxCell id="DJSqWrPiY0EJvNpJrQ70-33" value="- quantity: Integer" style="text;strokeColor=none;fillColor=none;align=left;verticalAlign=top;spacingLeft=4;spacingRight=4;overflow=hidden;rotatable=0;points=[[0,0.5],[1,0.5]];portConstraint=eastwest;" vertex="1" parent="DJSqWrPiY0EJvNpJrQ70-32">
          <mxGeometry y="38.857142857142854" width="195" height="39" as="geometry" />
        </mxCell>
        <mxCell id="DJSqWrPiY0EJvNpJrQ70-34" value="- price: Float" style="text;strokeColor=none;fillColor=none;align=left;verticalAlign=top;spacingLeft=4;spacingRight=4;overflow=hidden;rotatable=0;points=[[0,0.5],[1,0.5]];portConstraint=eastwest;" vertex="1" parent="DJSqWrPiY0EJvNpJrQ70-32">
          <mxGeometry y="77.85714285714286" width="195" height="39" as="geometry" />
        </mxCell>
        <mxCell id="DJSqWrPiY0EJvNpJrQ70-35" style="line;strokeWidth=1;fillColor=none;align=left;verticalAlign=middle;spacingTop=-1;spacingLeft=3;spacingRight=3;rotatable=0;labelPosition=right;points=[];portConstraint=eastwest;strokeColor=inherit;" vertex="1" parent="DJSqWrPiY0EJvNpJrQ70-32">
          <mxGeometry y="116.85714285714286" width="195" height="19" as="geometry" />
        </mxCell>
        <mxCell id="DJSqWrPiY0EJvNpJrQ70-36" value="&lt;&lt;interface&gt;&gt;&#xa;PaymentMethod" style="swimlane;fontStyle=1;align=center;verticalAlign=top;childLayout=stackLayout;horizontal=1;startSize=71;horizontalStack=0;resizeParent=1;resizeParentMax=0;resizeLast=0;collapsible=0;marginBottom=0;" vertex="1" parent="1">
          <mxGeometry x="561" y="797" width="318" height="126" as="geometry" />
        </mxCell>
        <mxCell id="DJSqWrPiY0EJvNpJrQ70-37" style="line;strokeWidth=1;fillColor=none;align=left;verticalAlign=middle;spacingTop=-1;spacingLeft=3;spacingRight=3;rotatable=0;labelPosition=right;points=[];portConstraint=eastwest;strokeColor=inherit;" vertex="1" parent="DJSqWrPiY0EJvNpJrQ70-36">
          <mxGeometry y="71" width="318" height="8" as="geometry" />
        </mxCell>
        <mxCell id="DJSqWrPiY0EJvNpJrQ70-38" value="+ pay(amount: Float) : : Boolean" style="text;strokeColor=none;fillColor=none;align=left;verticalAlign=top;spacingLeft=4;spacingRight=4;overflow=hidden;rotatable=0;points=[[0,0.5],[1,0.5]];portConstraint=eastwest;" vertex="1" parent="DJSqWrPiY0EJvNpJrQ70-36">
          <mxGeometry y="79" width="318" height="47" as="geometry" />
        </mxCell>
        <mxCell id="DJSqWrPiY0EJvNpJrQ70-39" value="PayPalPayment" style="swimlane;fontStyle=1;align=center;verticalAlign=top;childLayout=stackLayout;horizontal=1;startSize=45.333333333333336;horizontalStack=0;resizeParent=1;resizeParentMax=0;resizeLast=0;collapsible=0;marginBottom=0;" vertex="1" parent="1">
          <mxGeometry x="376" y="1009" width="314" height="143.33333333333334" as="geometry" />
        </mxCell>
        <mxCell id="DJSqWrPiY0EJvNpJrQ70-40" value="- paypalEmail: String" style="text;strokeColor=none;fillColor=none;align=left;verticalAlign=top;spacingLeft=4;spacingRight=4;overflow=hidden;rotatable=0;points=[[0,0.5],[1,0.5]];portConstraint=eastwest;" vertex="1" parent="DJSqWrPiY0EJvNpJrQ70-39">
          <mxGeometry y="45.333333333333336" width="314" height="45" as="geometry" />
        </mxCell>
        <mxCell id="DJSqWrPiY0EJvNpJrQ70-41" style="line;strokeWidth=1;fillColor=none;align=left;verticalAlign=middle;spacingTop=-1;spacingLeft=3;spacingRight=3;rotatable=0;labelPosition=right;points=[];portConstraint=eastwest;strokeColor=inherit;" vertex="1" parent="DJSqWrPiY0EJvNpJrQ70-39">
          <mxGeometry y="90.33333333333334" width="314" height="8" as="geometry" />
        </mxCell>
        <mxCell id="DJSqWrPiY0EJvNpJrQ70-42" value="+ pay(amount: Float) : : Boolean" style="text;strokeColor=none;fillColor=none;align=left;verticalAlign=top;spacingLeft=4;spacingRight=4;overflow=hidden;rotatable=0;points=[[0,0.5],[1,0.5]];portConstraint=eastwest;" vertex="1" parent="DJSqWrPiY0EJvNpJrQ70-39">
          <mxGeometry y="98.33333333333334" width="314" height="45" as="geometry" />
        </mxCell>
        <mxCell id="DJSqWrPiY0EJvNpJrQ70-43" value="CreditCardPayment" style="swimlane;fontStyle=1;align=center;verticalAlign=top;childLayout=stackLayout;horizontal=1;startSize=40;horizontalStack=0;resizeParent=1;resizeParentMax=0;resizeLast=0;collapsible=0;marginBottom=0;" vertex="1" parent="1">
          <mxGeometry x="741" y="997" width="331" height="168" as="geometry" />
        </mxCell>
        <mxCell id="DJSqWrPiY0EJvNpJrQ70-44" value="- cardNumber: String" style="text;strokeColor=none;fillColor=none;align=left;verticalAlign=top;spacingLeft=4;spacingRight=4;overflow=hidden;rotatable=0;points=[[0,0.5],[1,0.5]];portConstraint=eastwest;" vertex="1" parent="DJSqWrPiY0EJvNpJrQ70-43">
          <mxGeometry y="40" width="331" height="40" as="geometry" />
        </mxCell>
        <mxCell id="DJSqWrPiY0EJvNpJrQ70-45" value="- expiryDate: String" style="text;strokeColor=none;fillColor=none;align=left;verticalAlign=top;spacingLeft=4;spacingRight=4;overflow=hidden;rotatable=0;points=[[0,0.5],[1,0.5]];portConstraint=eastwest;" vertex="1" parent="DJSqWrPiY0EJvNpJrQ70-43">
          <mxGeometry y="80" width="331" height="40" as="geometry" />
        </mxCell>
        <mxCell id="DJSqWrPiY0EJvNpJrQ70-46" style="line;strokeWidth=1;fillColor=none;align=left;verticalAlign=middle;spacingTop=-1;spacingLeft=3;spacingRight=3;rotatable=0;labelPosition=right;points=[];portConstraint=eastwest;strokeColor=inherit;" vertex="1" parent="DJSqWrPiY0EJvNpJrQ70-43">
          <mxGeometry y="120" width="331" height="8" as="geometry" />
        </mxCell>
        <mxCell id="DJSqWrPiY0EJvNpJrQ70-47" value="+ pay(amount: Float) : : Boolean" style="text;strokeColor=none;fillColor=none;align=left;verticalAlign=top;spacingLeft=4;spacingRight=4;overflow=hidden;rotatable=0;points=[[0,0.5],[1,0.5]];portConstraint=eastwest;" vertex="1" parent="DJSqWrPiY0EJvNpJrQ70-43">
          <mxGeometry y="128" width="331" height="40" as="geometry" />
        </mxCell>
        <mxCell id="DJSqWrPiY0EJvNpJrQ70-48" value="" style="startArrow=block;startSize=16;startFill=0;endArrow=none;entryX=0.5;entryY=0;rounded=0;exitX=0.443;exitY=0.949;exitDx=0;exitDy=0;exitPerimeter=0;" edge="1" parent="1" source="DJSqWrPiY0EJvNpJrQ70-6" target="DJSqWrPiY0EJvNpJrQ70-7">
          <mxGeometry relative="1" as="geometry">
            <Array as="points">
              <mxPoint x="507" y="280" />
              <mxPoint x="600" y="280" />
              <mxPoint x="659" y="280" />
            </Array>
            <mxPoint x="510" y="240" as="sourcePoint" />
          </mxGeometry>
        </mxCell>
        <mxCell id="DJSqWrPiY0EJvNpJrQ70-49" value="" style="startArrow=block;startSize=16;startFill=0;endArrow=none;exitX=0.443;exitY=0.991;entryX=0.5;entryY=0;rounded=0;exitDx=0;exitDy=0;exitPerimeter=0;edgeStyle=orthogonalEdgeStyle;" edge="1" parent="1" source="DJSqWrPiY0EJvNpJrQ70-6" target="DJSqWrPiY0EJvNpJrQ70-11">
          <mxGeometry relative="1" as="geometry">
            <Array as="points">
              <mxPoint x="507" y="280" />
              <mxPoint x="376" y="280" />
            </Array>
          </mxGeometry>
        </mxCell>
        <mxCell id="DJSqWrPiY0EJvNpJrQ70-50" value="categorizes &gt;" style="curved=1;startArrow=none;endArrow=none;exitX=0.5;exitY=1;entryX=0.5;entryY=0;rounded=0;" edge="1" parent="1" source="DJSqWrPiY0EJvNpJrQ70-22" target="DJSqWrPiY0EJvNpJrQ70-15">
          <mxGeometry relative="1" as="geometry">
            <Array as="points" />
          </mxGeometry>
        </mxCell>
        <mxCell id="DJSqWrPiY0EJvNpJrQ70-51" value="1" style="edgeLabel;resizable=0;labelBackgroundColor=none;fontSize=17;align=right;verticalAlign=top;" vertex="1" parent="DJSqWrPiY0EJvNpJrQ70-50">
          <mxGeometry x="-1" relative="1" as="geometry" />
        </mxCell>
        <mxCell id="DJSqWrPiY0EJvNpJrQ70-52" value="*" style="edgeLabel;resizable=0;labelBackgroundColor=none;fontSize=18;align=left;verticalAlign=bottom;" vertex="1" parent="DJSqWrPiY0EJvNpJrQ70-50">
          <mxGeometry x="1" relative="1" as="geometry" />
        </mxCell>
        <mxCell id="DJSqWrPiY0EJvNpJrQ70-53" value="contains &gt;" style="curved=1;startArrow=diamondThin;startSize=14;startFill=1;endArrow=none;exitX=0;exitY=0.91;entryX=1;entryY=0.21;rounded=0;" edge="1" parent="1" target="DJSqWrPiY0EJvNpJrQ70-32">
          <mxGeometry relative="1" as="geometry">
            <Array as="points">
              <mxPoint x="444" y="761" />
            </Array>
            <mxPoint x="542" y="695.4480000000001" as="sourcePoint" />
          </mxGeometry>
        </mxCell>
        <mxCell id="DJSqWrPiY0EJvNpJrQ70-54" value="1" style="edgeLabel;resizable=0;labelBackgroundColor=none;fontSize=18;align=right;verticalAlign=top;" vertex="1" parent="DJSqWrPiY0EJvNpJrQ70-53">
          <mxGeometry x="-1" relative="1" as="geometry" />
        </mxCell>
        <mxCell id="DJSqWrPiY0EJvNpJrQ70-55" value="*" style="edgeLabel;resizable=0;labelBackgroundColor=none;fontSize=18;align=left;verticalAlign=bottom;" vertex="1" parent="DJSqWrPiY0EJvNpJrQ70-53">
          <mxGeometry x="1" relative="1" as="geometry" />
        </mxCell>
        <mxCell id="DJSqWrPiY0EJvNpJrQ70-56" value="for &gt;" style="startArrow=none;endArrow=none;exitX=0.5;exitY=1;entryX=0.33;entryY=0;rounded=0;" edge="1" parent="1" source="DJSqWrPiY0EJvNpJrQ70-15" target="DJSqWrPiY0EJvNpJrQ70-32">
          <mxGeometry relative="1" as="geometry" />
        </mxCell>
        <mxCell id="DJSqWrPiY0EJvNpJrQ70-57" value="1" style="edgeLabel;resizable=0;labelBackgroundColor=none;fontSize=16;align=right;verticalAlign=top;" vertex="1" parent="DJSqWrPiY0EJvNpJrQ70-56">
          <mxGeometry x="-1" relative="1" as="geometry" />
        </mxCell>
        <mxCell id="DJSqWrPiY0EJvNpJrQ70-58" value="*" style="edgeLabel;resizable=0;labelBackgroundColor=none;fontSize=26;align=left;verticalAlign=bottom;" vertex="1" parent="DJSqWrPiY0EJvNpJrQ70-56">
          <mxGeometry x="1" relative="1" as="geometry" />
        </mxCell>
        <mxCell id="DJSqWrPiY0EJvNpJrQ70-59" value="places &gt;" style="curved=1;startArrow=none;endArrow=none;exitX=0.5;exitY=1;entryX=0.5;entryY=0;rounded=0;" edge="1" parent="1" source="DJSqWrPiY0EJvNpJrQ70-7">
          <mxGeometry relative="1" as="geometry">
            <Array as="points" />
            <mxPoint x="659.5" y="520" as="targetPoint" />
          </mxGeometry>
        </mxCell>
        <mxCell id="DJSqWrPiY0EJvNpJrQ70-60" value="1" style="edgeLabel;resizable=0;labelBackgroundColor=none;fontSize=17;align=right;verticalAlign=top;" vertex="1" parent="DJSqWrPiY0EJvNpJrQ70-59">
          <mxGeometry x="-1" relative="1" as="geometry" />
        </mxCell>
        <mxCell id="DJSqWrPiY0EJvNpJrQ70-61" value="*" style="edgeLabel;resizable=0;labelBackgroundColor=none;fontSize=18;align=left;verticalAlign=bottom;" vertex="1" parent="DJSqWrPiY0EJvNpJrQ70-59">
          <mxGeometry x="1" relative="1" as="geometry" />
        </mxCell>
        <mxCell id="DJSqWrPiY0EJvNpJrQ70-62" value="" style="curved=1;dashed=1;startArrow=block;startSize=16;startFill=0;endArrow=none;exitX=0.06;exitY=1;entryX=0.5;entryY=0;rounded=0;" edge="1" parent="1" source="DJSqWrPiY0EJvNpJrQ70-36" target="DJSqWrPiY0EJvNpJrQ70-39">
          <mxGeometry relative="1" as="geometry">
            <Array as="points">
              <mxPoint x="534" y="972" />
            </Array>
          </mxGeometry>
        </mxCell>
        <mxCell id="DJSqWrPiY0EJvNpJrQ70-63" value="" style="curved=1;dashed=1;startArrow=block;startSize=16;startFill=0;endArrow=none;exitX=0.94;exitY=1;entryX=0.5;entryY=0;rounded=0;" edge="1" parent="1" source="DJSqWrPiY0EJvNpJrQ70-36" target="DJSqWrPiY0EJvNpJrQ70-43">
          <mxGeometry relative="1" as="geometry">
            <Array as="points">
              <mxPoint x="906" y="972" />
            </Array>
          </mxGeometry>
        </mxCell>
        <mxCell id="DJSqWrPiY0EJvNpJrQ70-64" value="paidWith &gt;" style="startArrow=none;endArrow=none;exitX=0.67;exitY=1;rounded=0;entryX=0.446;entryY=0.021;entryDx=0;entryDy=0;entryPerimeter=0;" edge="1" parent="1" target="DJSqWrPiY0EJvNpJrQ70-36">
          <mxGeometry relative="1" as="geometry">
            <mxPoint x="699.4500000000003" y="712.8" as="sourcePoint" />
          </mxGeometry>
        </mxCell>
        <mxCell id="DJSqWrPiY0EJvNpJrQ70-65" value="1" style="edgeLabel;resizable=0;labelBackgroundColor=none;fontSize=17;align=right;verticalAlign=top;" vertex="1" parent="DJSqWrPiY0EJvNpJrQ70-64">
          <mxGeometry x="-1" relative="1" as="geometry" />
        </mxCell>
        <mxCell id="DJSqWrPiY0EJvNpJrQ70-66" value="1" style="edgeLabel;resizable=0;labelBackgroundColor=none;fontSize=18;align=left;verticalAlign=bottom;" vertex="1" parent="DJSqWrPiY0EJvNpJrQ70-64">
          <mxGeometry x="1" relative="1" as="geometry" />
        </mxCell>
        <mxCell id="uytX4sPP3OjTPOBnvUWk-1" value="Review" style="swimlane;fontStyle=1;align=center;verticalAlign=top;childLayout=stackLayout;horizontal=1;startSize=28.571428571428573;horizontalStack=0;resizeParent=1;resizeParentMax=0;resizeLast=0;collapsible=0;marginBottom=0;fontSize=20;" vertex="1" parent="1">
          <mxGeometry x="1000" y="370" width="370" height="413.57142857142856" as="geometry" />
        </mxCell>
        <mxCell id="uytX4sPP3OjTPOBnvUWk-2" value="-reviewId: int" style="text;strokeColor=none;fillColor=none;align=left;verticalAlign=top;spacingLeft=4;spacingRight=4;overflow=hidden;rotatable=0;points=[[0,0.5],[1,0.5]];portConstraint=eastwest;fontSize=20;" vertex="1" parent="uytX4sPP3OjTPOBnvUWk-1">
          <mxGeometry y="28.571428571428573" width="370" height="29" as="geometry" />
        </mxCell>
        <mxCell id="uytX4sPP3OjTPOBnvUWk-3" value="-productId: int" style="text;strokeColor=none;fillColor=none;align=left;verticalAlign=top;spacingLeft=4;spacingRight=4;overflow=hidden;rotatable=0;points=[[0,0.5],[1,0.5]];portConstraint=eastwest;fontSize=20;" vertex="1" parent="uytX4sPP3OjTPOBnvUWk-1">
          <mxGeometry y="57.57142857142857" width="370" height="29" as="geometry" />
        </mxCell>
        <mxCell id="uytX4sPP3OjTPOBnvUWk-4" value="-userId: int" style="text;strokeColor=none;fillColor=none;align=left;verticalAlign=top;spacingLeft=4;spacingRight=4;overflow=hidden;rotatable=0;points=[[0,0.5],[1,0.5]];portConstraint=eastwest;fontSize=20;" vertex="1" parent="uytX4sPP3OjTPOBnvUWk-1">
          <mxGeometry y="86.57142857142857" width="370" height="29" as="geometry" />
        </mxCell>
        <mxCell id="uytX4sPP3OjTPOBnvUWk-5" value="-rating: int" style="text;strokeColor=none;fillColor=none;align=left;verticalAlign=top;spacingLeft=4;spacingRight=4;overflow=hidden;rotatable=0;points=[[0,0.5],[1,0.5]];portConstraint=eastwest;fontSize=20;" vertex="1" parent="uytX4sPP3OjTPOBnvUWk-1">
          <mxGeometry y="115.57142857142857" width="370" height="29" as="geometry" />
        </mxCell>
        <mxCell id="uytX4sPP3OjTPOBnvUWk-6" value="-comment: string" style="text;strokeColor=none;fillColor=none;align=left;verticalAlign=top;spacingLeft=4;spacingRight=4;overflow=hidden;rotatable=0;points=[[0,0.5],[1,0.5]];portConstraint=eastwest;fontSize=20;" vertex="1" parent="uytX4sPP3OjTPOBnvUWk-1">
          <mxGeometry y="144.57142857142856" width="370" height="29" as="geometry" />
        </mxCell>
        <mxCell id="uytX4sPP3OjTPOBnvUWk-7" value="-reviewDate: Date" style="text;strokeColor=none;fillColor=none;align=left;verticalAlign=top;spacingLeft=4;spacingRight=4;overflow=hidden;rotatable=0;points=[[0,0.5],[1,0.5]];portConstraint=eastwest;fontSize=20;" vertex="1" parent="uytX4sPP3OjTPOBnvUWk-1">
          <mxGeometry y="173.57142857142856" width="370" height="29" as="geometry" />
        </mxCell>
        <mxCell id="uytX4sPP3OjTPOBnvUWk-8" value="-isApproved: boolean" style="text;strokeColor=none;fillColor=none;align=left;verticalAlign=top;spacingLeft=4;spacingRight=4;overflow=hidden;rotatable=0;points=[[0,0.5],[1,0.5]];portConstraint=eastwest;fontSize=20;" vertex="1" parent="uytX4sPP3OjTPOBnvUWk-1">
          <mxGeometry y="202.57142857142856" width="370" height="29" as="geometry" />
        </mxCell>
        <mxCell id="uytX4sPP3OjTPOBnvUWk-9" style="line;strokeWidth=1;fillColor=none;align=left;verticalAlign=middle;spacingTop=-1;spacingLeft=3;spacingRight=3;rotatable=0;labelPosition=right;points=[];portConstraint=eastwest;strokeColor=inherit;fontSize=20;" vertex="1" parent="uytX4sPP3OjTPOBnvUWk-1">
          <mxGeometry y="231.57142857142856" width="370" height="8" as="geometry" />
        </mxCell>
        <mxCell id="uytX4sPP3OjTPOBnvUWk-10" value="+approve() : void" style="text;strokeColor=none;fillColor=none;align=left;verticalAlign=top;spacingLeft=4;spacingRight=4;overflow=hidden;rotatable=0;points=[[0,0.5],[1,0.5]];portConstraint=eastwest;fontSize=20;" vertex="1" parent="uytX4sPP3OjTPOBnvUWk-1">
          <mxGeometry y="239.57142857142856" width="370" height="29" as="geometry" />
        </mxCell>
        <mxCell id="uytX4sPP3OjTPOBnvUWk-11" value="+disapprove() : void" style="text;strokeColor=none;fillColor=none;align=left;verticalAlign=top;spacingLeft=4;spacingRight=4;overflow=hidden;rotatable=0;points=[[0,0.5],[1,0.5]];portConstraint=eastwest;fontSize=20;" vertex="1" parent="uytX4sPP3OjTPOBnvUWk-1">
          <mxGeometry y="268.57142857142856" width="370" height="29" as="geometry" />
        </mxCell>
        <mxCell id="uytX4sPP3OjTPOBnvUWk-12" value="+updateComment(newComment: string) :  void" style="text;strokeColor=none;fillColor=none;align=left;verticalAlign=top;spacingLeft=4;spacingRight=4;overflow=hidden;rotatable=0;points=[[0,0.5],[1,0.5]];portConstraint=eastwest;fontSize=20;" vertex="1" parent="uytX4sPP3OjTPOBnvUWk-1">
          <mxGeometry y="297.57142857142856" width="370" height="29" as="geometry" />
        </mxCell>
        <mxCell id="uytX4sPP3OjTPOBnvUWk-13" value="+getReviewDetails() :  string" style="text;strokeColor=none;fillColor=none;align=left;verticalAlign=top;spacingLeft=4;spacingRight=4;overflow=hidden;rotatable=0;points=[[0,0.5],[1,0.5]];portConstraint=eastwest;fontSize=20;" vertex="1" parent="uytX4sPP3OjTPOBnvUWk-1">
          <mxGeometry y="326.57142857142856" width="370" height="29" as="geometry" />
        </mxCell>
        <mxCell id="uytX4sPP3OjTPOBnvUWk-14" value="+deleteReview() : void" style="text;strokeColor=none;fillColor=none;align=left;verticalAlign=top;spacingLeft=4;spacingRight=4;overflow=hidden;rotatable=0;points=[[0,0.5],[1,0.5]];portConstraint=eastwest;fontSize=20;" vertex="1" parent="uytX4sPP3OjTPOBnvUWk-1">
          <mxGeometry y="355.57142857142856" width="370" height="29" as="geometry" />
        </mxCell>
        <mxCell id="uytX4sPP3OjTPOBnvUWk-15" value="+approveReview() :  void" style="text;strokeColor=none;fillColor=none;align=left;verticalAlign=top;spacingLeft=4;spacingRight=4;overflow=hidden;rotatable=0;points=[[0,0.5],[1,0.5]];portConstraint=eastwest;fontSize=20;" vertex="1" parent="uytX4sPP3OjTPOBnvUWk-1">
          <mxGeometry y="384.57142857142856" width="370" height="29" as="geometry" />
        </mxCell>
        <mxCell id="qWzlthvcDcueKFBRxpXv-1" value="Order" style="swimlane;fontStyle=1;align=center;verticalAlign=top;childLayout=stackLayout;horizontal=1;startSize=36.8;horizontalStack=0;resizeParent=1;resizeParentMax=0;resizeLast=0;collapsible=0;marginBottom=0;fontSize=20;" vertex="1" parent="1">
          <mxGeometry x="540" y="520" width="227" height="192.8" as="geometry" />
        </mxCell>
        <mxCell id="qWzlthvcDcueKFBRxpXv-2" value="-orderId: int" style="text;strokeColor=none;fillColor=none;align=left;verticalAlign=top;spacingLeft=4;spacingRight=4;overflow=hidden;rotatable=0;points=[[0,0.5],[1,0.5]];portConstraint=eastwest;fontSize=20;" vertex="1" parent="qWzlthvcDcueKFBRxpXv-1">
          <mxGeometry y="36.8" width="227" height="37" as="geometry" />
        </mxCell>
        <mxCell id="qWzlthvcDcueKFBRxpXv-3" value="-orderDate: Date" style="text;strokeColor=none;fillColor=none;align=left;verticalAlign=top;spacingLeft=4;spacingRight=4;overflow=hidden;rotatable=0;points=[[0,0.5],[1,0.5]];portConstraint=eastwest;fontSize=20;" vertex="1" parent="qWzlthvcDcueKFBRxpXv-1">
          <mxGeometry y="73.8" width="227" height="37" as="geometry" />
        </mxCell>
        <mxCell id="qWzlthvcDcueKFBRxpXv-4" value="-status: string" style="text;strokeColor=none;fillColor=none;align=left;verticalAlign=top;spacingLeft=4;spacingRight=4;overflow=hidden;rotatable=0;points=[[0,0.5],[1,0.5]];portConstraint=eastwest;fontSize=20;" vertex="1" parent="qWzlthvcDcueKFBRxpXv-1">
          <mxGeometry y="110.8" width="227" height="37" as="geometry" />
        </mxCell>
        <mxCell id="qWzlthvcDcueKFBRxpXv-5" style="line;strokeWidth=1;fillColor=none;align=left;verticalAlign=middle;spacingTop=-1;spacingLeft=3;spacingRight=3;rotatable=0;labelPosition=right;points=[];portConstraint=eastwest;strokeColor=inherit;fontSize=20;" vertex="1" parent="qWzlthvcDcueKFBRxpXv-1">
          <mxGeometry y="147.8" width="227" height="8" as="geometry" />
        </mxCell>
        <mxCell id="qWzlthvcDcueKFBRxpXv-6" value="+calculateTotal() : double" style="text;strokeColor=none;fillColor=none;align=left;verticalAlign=top;spacingLeft=4;spacingRight=4;overflow=hidden;rotatable=0;points=[[0,0.5],[1,0.5]];portConstraint=eastwest;fontSize=20;" vertex="1" parent="qWzlthvcDcueKFBRxpXv-1">
          <mxGeometry y="155.8" width="227" height="37" as="geometry" />
        </mxCell>
      </root>
    </mxGraphModel>
  </diagram>
  <diagram id="K63Hy-JG6EndJMm0LXhV" name="Page-3">
    <mxGraphModel grid="1" page="1" gridSize="10" guides="1" tooltips="1" connect="1" arrows="1" fold="1" pageScale="1" pageWidth="827" pageHeight="1169" math="0" shadow="0">
      <root>
        <mxCell id="0" />
        <mxCell id="1" parent="0" />
        <mxCell id="Suzx8Zcdtsd8IvIES5Vi-1" value="&lt;&lt;abstract&gt;&gt;&#xa;User" style="swimlane;fontStyle=1;align=center;verticalAlign=top;childLayout=stackLayout;horizontal=1;startSize=53.53846153846154;horizontalStack=0;resizeParent=1;resizeParentMax=0;resizeLast=0;collapsible=0;marginBottom=0;fontSize=20;" vertex="1" parent="1">
          <mxGeometry x="712" y="20" width="200" height="241.53846153846155" as="geometry" />
        </mxCell>
        <mxCell id="Suzx8Zcdtsd8IvIES5Vi-2" value="#userId: int" style="text;strokeColor=none;fillColor=none;align=left;verticalAlign=top;spacingLeft=4;spacingRight=4;overflow=hidden;rotatable=0;points=[[0,0.5],[1,0.5]];portConstraint=eastwest;fontSize=20;" vertex="1" parent="Suzx8Zcdtsd8IvIES5Vi-1">
          <mxGeometry y="53.53846153846154" width="200" height="36" as="geometry" />
        </mxCell>
        <mxCell id="Suzx8Zcdtsd8IvIES5Vi-3" value="#name: string" style="text;strokeColor=none;fillColor=none;align=left;verticalAlign=top;spacingLeft=4;spacingRight=4;overflow=hidden;rotatable=0;points=[[0,0.5],[1,0.5]];portConstraint=eastwest;fontSize=20;" vertex="1" parent="Suzx8Zcdtsd8IvIES5Vi-1">
          <mxGeometry y="89.53846153846155" width="200" height="36" as="geometry" />
        </mxCell>
        <mxCell id="Suzx8Zcdtsd8IvIES5Vi-4" value="#email: string" style="text;strokeColor=none;fillColor=none;align=left;verticalAlign=top;spacingLeft=4;spacingRight=4;overflow=hidden;rotatable=0;points=[[0,0.5],[1,0.5]];portConstraint=eastwest;fontSize=20;" vertex="1" parent="Suzx8Zcdtsd8IvIES5Vi-1">
          <mxGeometry y="125.53846153846155" width="200" height="36" as="geometry" />
        </mxCell>
        <mxCell id="Suzx8Zcdtsd8IvIES5Vi-5" value="#password: string" style="text;strokeColor=none;fillColor=none;align=left;verticalAlign=top;spacingLeft=4;spacingRight=4;overflow=hidden;rotatable=0;points=[[0,0.5],[1,0.5]];portConstraint=eastwest;fontSize=20;" vertex="1" parent="Suzx8Zcdtsd8IvIES5Vi-1">
          <mxGeometry y="161.53846153846155" width="200" height="36" as="geometry" />
        </mxCell>
        <mxCell id="Suzx8Zcdtsd8IvIES5Vi-6" style="line;strokeWidth=1;fillColor=none;align=left;verticalAlign=middle;spacingTop=-1;spacingLeft=3;spacingRight=3;rotatable=0;labelPosition=right;points=[];portConstraint=eastwest;strokeColor=inherit;fontSize=20;" vertex="1" parent="Suzx8Zcdtsd8IvIES5Vi-1">
          <mxGeometry y="197.53846153846155" width="200" height="8" as="geometry" />
        </mxCell>
        <mxCell id="Suzx8Zcdtsd8IvIES5Vi-7" value="+login(email, password) :  boolean" style="text;strokeColor=none;fillColor=none;align=left;verticalAlign=top;spacingLeft=4;spacingRight=4;overflow=hidden;rotatable=0;points=[[0,0.5],[1,0.5]];portConstraint=eastwest;fontSize=20;" vertex="1" parent="Suzx8Zcdtsd8IvIES5Vi-1">
          <mxGeometry y="205.53846153846155" width="200" height="36" as="geometry" />
        </mxCell>
        <mxCell id="Suzx8Zcdtsd8IvIES5Vi-8" value="Customer" style="swimlane;fontStyle=1;align=center;verticalAlign=top;childLayout=stackLayout;horizontal=1;startSize=38.857142857142854;horizontalStack=0;resizeParent=1;resizeParentMax=0;resizeLast=0;collapsible=0;marginBottom=0;fontSize=20;" vertex="1" parent="1">
          <mxGeometry x="563" y="313" width="216" height="135.85714285714286" as="geometry" />
        </mxCell>
        <mxCell id="Suzx8Zcdtsd8IvIES5Vi-9" value="-address: string" style="text;strokeColor=none;fillColor=none;align=left;verticalAlign=top;spacingLeft=4;spacingRight=4;overflow=hidden;rotatable=0;points=[[0,0.5],[1,0.5]];portConstraint=eastwest;fontSize=20;" vertex="1" parent="Suzx8Zcdtsd8IvIES5Vi-8">
          <mxGeometry y="38.857142857142854" width="216" height="39" as="geometry" />
        </mxCell>
        <mxCell id="Suzx8Zcdtsd8IvIES5Vi-10" value="-phoneNumber: string" style="text;strokeColor=none;fillColor=none;align=left;verticalAlign=top;spacingLeft=4;spacingRight=4;overflow=hidden;rotatable=0;points=[[0,0.5],[1,0.5]];portConstraint=eastwest;fontSize=20;" vertex="1" parent="Suzx8Zcdtsd8IvIES5Vi-8">
          <mxGeometry y="77.85714285714286" width="216" height="39" as="geometry" />
        </mxCell>
        <mxCell id="Suzx8Zcdtsd8IvIES5Vi-11" style="line;strokeWidth=1;fillColor=none;align=left;verticalAlign=middle;spacingTop=-1;spacingLeft=3;spacingRight=3;rotatable=0;labelPosition=right;points=[];portConstraint=eastwest;strokeColor=inherit;fontSize=20;" vertex="1" parent="Suzx8Zcdtsd8IvIES5Vi-8">
          <mxGeometry y="116.85714285714286" width="216" height="19" as="geometry" />
        </mxCell>
        <mxCell id="Suzx8Zcdtsd8IvIES5Vi-12" value="Admin" style="swimlane;fontStyle=1;align=center;verticalAlign=top;childLayout=stackLayout;horizontal=1;startSize=40.57142857142857;horizontalStack=0;resizeParent=1;resizeParentMax=0;resizeLast=0;collapsible=0;marginBottom=0;fontSize=20;" vertex="1" parent="1">
          <mxGeometry x="829" y="310" width="247" height="130.57142857142856" as="geometry" />
        </mxCell>
        <mxCell id="Suzx8Zcdtsd8IvIES5Vi-13" style="line;strokeWidth=1;fillColor=none;align=left;verticalAlign=middle;spacingTop=-1;spacingLeft=3;spacingRight=3;rotatable=0;labelPosition=right;points=[];portConstraint=eastwest;strokeColor=inherit;fontSize=20;" vertex="1" parent="Suzx8Zcdtsd8IvIES5Vi-12">
          <mxGeometry y="40.57142857142857" width="247" height="8" as="geometry" />
        </mxCell>
        <mxCell id="Suzx8Zcdtsd8IvIES5Vi-14" value="+manageInventory() :  void" style="text;strokeColor=none;fillColor=none;align=left;verticalAlign=top;spacingLeft=4;spacingRight=4;overflow=hidden;rotatable=0;points=[[0,0.5],[1,0.5]];portConstraint=eastwest;fontSize=20;" vertex="1" parent="Suzx8Zcdtsd8IvIES5Vi-12">
          <mxGeometry y="48.57142857142857" width="247" height="41" as="geometry" />
        </mxCell>
        <mxCell id="Suzx8Zcdtsd8IvIES5Vi-15" value="+addProduct() :  void" style="text;strokeColor=none;fillColor=none;align=left;verticalAlign=top;spacingLeft=4;spacingRight=4;overflow=hidden;rotatable=0;points=[[0,0.5],[1,0.5]];portConstraint=eastwest;fontSize=20;" vertex="1" parent="Suzx8Zcdtsd8IvIES5Vi-12">
          <mxGeometry y="89.57142857142857" width="247" height="41" as="geometry" />
        </mxCell>
        <mxCell id="Suzx8Zcdtsd8IvIES5Vi-16" value="Order" style="swimlane;fontStyle=1;align=center;verticalAlign=top;childLayout=stackLayout;horizontal=1;startSize=36.8;horizontalStack=0;resizeParent=1;resizeParentMax=0;resizeLast=0;collapsible=0;marginBottom=0;fontSize=20;" vertex="1" parent="1">
          <mxGeometry x="835" y="532" width="227" height="192.8" as="geometry" />
        </mxCell>
        <mxCell id="Suzx8Zcdtsd8IvIES5Vi-17" value="-orderId: int" style="text;strokeColor=none;fillColor=none;align=left;verticalAlign=top;spacingLeft=4;spacingRight=4;overflow=hidden;rotatable=0;points=[[0,0.5],[1,0.5]];portConstraint=eastwest;fontSize=20;" vertex="1" parent="Suzx8Zcdtsd8IvIES5Vi-16">
          <mxGeometry y="36.8" width="227" height="37" as="geometry" />
        </mxCell>
        <mxCell id="Suzx8Zcdtsd8IvIES5Vi-18" value="-orderDate: Date" style="text;strokeColor=none;fillColor=none;align=left;verticalAlign=top;spacingLeft=4;spacingRight=4;overflow=hidden;rotatable=0;points=[[0,0.5],[1,0.5]];portConstraint=eastwest;fontSize=20;" vertex="1" parent="Suzx8Zcdtsd8IvIES5Vi-16">
          <mxGeometry y="73.8" width="227" height="37" as="geometry" />
        </mxCell>
        <mxCell id="Suzx8Zcdtsd8IvIES5Vi-19" value="-status: string" style="text;strokeColor=none;fillColor=none;align=left;verticalAlign=top;spacingLeft=4;spacingRight=4;overflow=hidden;rotatable=0;points=[[0,0.5],[1,0.5]];portConstraint=eastwest;fontSize=20;" vertex="1" parent="Suzx8Zcdtsd8IvIES5Vi-16">
          <mxGeometry y="110.8" width="227" height="37" as="geometry" />
        </mxCell>
        <mxCell id="Suzx8Zcdtsd8IvIES5Vi-20" style="line;strokeWidth=1;fillColor=none;align=left;verticalAlign=middle;spacingTop=-1;spacingLeft=3;spacingRight=3;rotatable=0;labelPosition=right;points=[];portConstraint=eastwest;strokeColor=inherit;fontSize=20;" vertex="1" parent="Suzx8Zcdtsd8IvIES5Vi-16">
          <mxGeometry y="147.8" width="227" height="8" as="geometry" />
        </mxCell>
        <mxCell id="Suzx8Zcdtsd8IvIES5Vi-21" value="+calculateTotal() : double" style="text;strokeColor=none;fillColor=none;align=left;verticalAlign=top;spacingLeft=4;spacingRight=4;overflow=hidden;rotatable=0;points=[[0,0.5],[1,0.5]];portConstraint=eastwest;fontSize=20;" vertex="1" parent="Suzx8Zcdtsd8IvIES5Vi-16">
          <mxGeometry y="155.8" width="227" height="37" as="geometry" />
        </mxCell>
        <mxCell id="Suzx8Zcdtsd8IvIES5Vi-22" value="OrderItem" style="swimlane;fontStyle=1;align=center;verticalAlign=top;childLayout=stackLayout;horizontal=1;startSize=38.857142857142854;horizontalStack=0;resizeParent=1;resizeParentMax=0;resizeLast=0;collapsible=0;marginBottom=0;fontSize=20;" vertex="1" parent="1">
          <mxGeometry x="465" y="929" width="159" height="135.85714285714286" as="geometry" />
        </mxCell>
        <mxCell id="Suzx8Zcdtsd8IvIES5Vi-23" value="-quantity: int" style="text;strokeColor=none;fillColor=none;align=left;verticalAlign=top;spacingLeft=4;spacingRight=4;overflow=hidden;rotatable=0;points=[[0,0.5],[1,0.5]];portConstraint=eastwest;fontSize=20;" vertex="1" parent="Suzx8Zcdtsd8IvIES5Vi-22">
          <mxGeometry y="38.857142857142854" width="159" height="39" as="geometry" />
        </mxCell>
        <mxCell id="Suzx8Zcdtsd8IvIES5Vi-24" value="-price: double" style="text;strokeColor=none;fillColor=none;align=left;verticalAlign=top;spacingLeft=4;spacingRight=4;overflow=hidden;rotatable=0;points=[[0,0.5],[1,0.5]];portConstraint=eastwest;fontSize=20;" vertex="1" parent="Suzx8Zcdtsd8IvIES5Vi-22">
          <mxGeometry y="77.85714285714286" width="159" height="39" as="geometry" />
        </mxCell>
        <mxCell id="Suzx8Zcdtsd8IvIES5Vi-25" style="line;strokeWidth=1;fillColor=none;align=left;verticalAlign=middle;spacingTop=-1;spacingLeft=3;spacingRight=3;rotatable=0;labelPosition=right;points=[];portConstraint=eastwest;strokeColor=inherit;fontSize=20;" vertex="1" parent="Suzx8Zcdtsd8IvIES5Vi-22">
          <mxGeometry y="116.85714285714286" width="159" height="19" as="geometry" />
        </mxCell>
        <mxCell id="Suzx8Zcdtsd8IvIES5Vi-26" value="Product" style="swimlane;fontStyle=1;align=center;verticalAlign=top;childLayout=stackLayout;horizontal=1;startSize=33.142857142857146;horizontalStack=0;resizeParent=1;resizeParentMax=0;resizeLast=0;collapsible=0;marginBottom=0;fontSize=20;" vertex="1" parent="1">
          <mxGeometry x="262" y="1277" width="218" height="239.14285714285714" as="geometry" />
        </mxCell>
        <mxCell id="Suzx8Zcdtsd8IvIES5Vi-27" value="-productId: int" style="text;strokeColor=none;fillColor=none;align=left;verticalAlign=top;spacingLeft=4;spacingRight=4;overflow=hidden;rotatable=0;points=[[0,0.5],[1,0.5]];portConstraint=eastwest;fontSize=20;" vertex="1" parent="Suzx8Zcdtsd8IvIES5Vi-26">
          <mxGeometry y="33.142857142857146" width="218" height="33" as="geometry" />
        </mxCell>
        <mxCell id="Suzx8Zcdtsd8IvIES5Vi-28" value="-name: string" style="text;strokeColor=none;fillColor=none;align=left;verticalAlign=top;spacingLeft=4;spacingRight=4;overflow=hidden;rotatable=0;points=[[0,0.5],[1,0.5]];portConstraint=eastwest;fontSize=20;" vertex="1" parent="Suzx8Zcdtsd8IvIES5Vi-26">
          <mxGeometry y="66.14285714285714" width="218" height="33" as="geometry" />
        </mxCell>
        <mxCell id="Suzx8Zcdtsd8IvIES5Vi-29" value="-description: string" style="text;strokeColor=none;fillColor=none;align=left;verticalAlign=top;spacingLeft=4;spacingRight=4;overflow=hidden;rotatable=0;points=[[0,0.5],[1,0.5]];portConstraint=eastwest;fontSize=20;" vertex="1" parent="Suzx8Zcdtsd8IvIES5Vi-26">
          <mxGeometry y="99.14285714285714" width="218" height="33" as="geometry" />
        </mxCell>
        <mxCell id="Suzx8Zcdtsd8IvIES5Vi-30" value="-price: double" style="text;strokeColor=none;fillColor=none;align=left;verticalAlign=top;spacingLeft=4;spacingRight=4;overflow=hidden;rotatable=0;points=[[0,0.5],[1,0.5]];portConstraint=eastwest;fontSize=20;" vertex="1" parent="Suzx8Zcdtsd8IvIES5Vi-26">
          <mxGeometry y="132.14285714285714" width="218" height="33" as="geometry" />
        </mxCell>
        <mxCell id="Suzx8Zcdtsd8IvIES5Vi-31" value="-stock: int" style="text;strokeColor=none;fillColor=none;align=left;verticalAlign=top;spacingLeft=4;spacingRight=4;overflow=hidden;rotatable=0;points=[[0,0.5],[1,0.5]];portConstraint=eastwest;fontSize=20;" vertex="1" parent="Suzx8Zcdtsd8IvIES5Vi-26">
          <mxGeometry y="165.14285714285714" width="218" height="33" as="geometry" />
        </mxCell>
        <mxCell id="Suzx8Zcdtsd8IvIES5Vi-32" style="line;strokeWidth=1;fillColor=none;align=left;verticalAlign=middle;spacingTop=-1;spacingLeft=3;spacingRight=3;rotatable=0;labelPosition=right;points=[];portConstraint=eastwest;strokeColor=inherit;fontSize=20;" vertex="1" parent="Suzx8Zcdtsd8IvIES5Vi-26">
          <mxGeometry y="198.14285714285714" width="218" height="8" as="geometry" />
        </mxCell>
        <mxCell id="Suzx8Zcdtsd8IvIES5Vi-33" value="+updateStock() :  void" style="text;strokeColor=none;fillColor=none;align=left;verticalAlign=top;spacingLeft=4;spacingRight=4;overflow=hidden;rotatable=0;points=[[0,0.5],[1,0.5]];portConstraint=eastwest;fontSize=20;" vertex="1" parent="Suzx8Zcdtsd8IvIES5Vi-26">
          <mxGeometry y="206.14285714285714" width="218" height="33" as="geometry" />
        </mxCell>
        <mxCell id="Suzx8Zcdtsd8IvIES5Vi-34" value="Inventory" style="swimlane;fontStyle=1;align=center;verticalAlign=top;childLayout=stackLayout;horizontal=1;startSize=38.857142857142854;horizontalStack=0;resizeParent=1;resizeParentMax=0;resizeLast=0;collapsible=0;marginBottom=0;fontSize=20;" vertex="1" parent="1">
          <mxGeometry x="391" y="1650" width="177" height="135.85714285714286" as="geometry" />
        </mxCell>
        <mxCell id="Suzx8Zcdtsd8IvIES5Vi-35" value="-inventoryId: int" style="text;strokeColor=none;fillColor=none;align=left;verticalAlign=top;spacingLeft=4;spacingRight=4;overflow=hidden;rotatable=0;points=[[0,0.5],[1,0.5]];portConstraint=eastwest;fontSize=20;" vertex="1" parent="Suzx8Zcdtsd8IvIES5Vi-34">
          <mxGeometry y="38.857142857142854" width="177" height="39" as="geometry" />
        </mxCell>
        <mxCell id="Suzx8Zcdtsd8IvIES5Vi-36" value="-location: string" style="text;strokeColor=none;fillColor=none;align=left;verticalAlign=top;spacingLeft=4;spacingRight=4;overflow=hidden;rotatable=0;points=[[0,0.5],[1,0.5]];portConstraint=eastwest;fontSize=20;" vertex="1" parent="Suzx8Zcdtsd8IvIES5Vi-34">
          <mxGeometry y="77.85714285714286" width="177" height="39" as="geometry" />
        </mxCell>
        <mxCell id="Suzx8Zcdtsd8IvIES5Vi-37" style="line;strokeWidth=1;fillColor=none;align=left;verticalAlign=middle;spacingTop=-1;spacingLeft=3;spacingRight=3;rotatable=0;labelPosition=right;points=[];portConstraint=eastwest;strokeColor=inherit;fontSize=20;" vertex="1" parent="Suzx8Zcdtsd8IvIES5Vi-34">
          <mxGeometry y="116.85714285714286" width="177" height="19" as="geometry" />
        </mxCell>
        <mxCell id="Suzx8Zcdtsd8IvIES5Vi-38" value="ProductCategory" style="swimlane;fontStyle=1;align=center;verticalAlign=top;childLayout=stackLayout;horizontal=1;startSize=38.857142857142854;horizontalStack=0;resizeParent=1;resizeParentMax=0;resizeLast=0;collapsible=0;marginBottom=0;fontSize=20;" vertex="1" parent="1">
          <mxGeometry x="94" y="1650" width="246" height="135.85714285714286" as="geometry" />
        </mxCell>
        <mxCell id="Suzx8Zcdtsd8IvIES5Vi-39" value="-categoryId: int" style="text;strokeColor=none;fillColor=none;align=left;verticalAlign=top;spacingLeft=4;spacingRight=4;overflow=hidden;rotatable=0;points=[[0,0.5],[1,0.5]];portConstraint=eastwest;fontSize=20;" vertex="1" parent="Suzx8Zcdtsd8IvIES5Vi-38">
          <mxGeometry y="38.857142857142854" width="246" height="39" as="geometry" />
        </mxCell>
        <mxCell id="Suzx8Zcdtsd8IvIES5Vi-40" value="-categoryName: string" style="text;strokeColor=none;fillColor=none;align=left;verticalAlign=top;spacingLeft=4;spacingRight=4;overflow=hidden;rotatable=0;points=[[0,0.5],[1,0.5]];portConstraint=eastwest;fontSize=20;" vertex="1" parent="Suzx8Zcdtsd8IvIES5Vi-38">
          <mxGeometry y="77.85714285714286" width="246" height="39" as="geometry" />
        </mxCell>
        <mxCell id="Suzx8Zcdtsd8IvIES5Vi-41" style="line;strokeWidth=1;fillColor=none;align=left;verticalAlign=middle;spacingTop=-1;spacingLeft=3;spacingRight=3;rotatable=0;labelPosition=right;points=[];portConstraint=eastwest;strokeColor=inherit;fontSize=20;" vertex="1" parent="Suzx8Zcdtsd8IvIES5Vi-38">
          <mxGeometry y="116.85714285714286" width="246" height="19" as="geometry" />
        </mxCell>
        <mxCell id="Suzx8Zcdtsd8IvIES5Vi-42" value="Anime" style="swimlane;fontStyle=1;align=center;verticalAlign=top;childLayout=stackLayout;horizontal=1;startSize=30.11764705882353;horizontalStack=0;resizeParent=1;resizeParentMax=0;resizeLast=0;collapsible=0;marginBottom=0;fontSize=20;" vertex="1" parent="1">
          <mxGeometry x="618" y="1590" width="185" height="255.11764705882354" as="geometry" />
        </mxCell>
        <mxCell id="Suzx8Zcdtsd8IvIES5Vi-43" value="-animeId: int" style="text;strokeColor=none;fillColor=none;align=left;verticalAlign=top;spacingLeft=4;spacingRight=4;overflow=hidden;rotatable=0;points=[[0,0.5],[1,0.5]];portConstraint=eastwest;fontSize=20;" vertex="1" parent="Suzx8Zcdtsd8IvIES5Vi-42">
          <mxGeometry y="30.11764705882353" width="185" height="30" as="geometry" />
        </mxCell>
        <mxCell id="Suzx8Zcdtsd8IvIES5Vi-44" value="-title: string" style="text;strokeColor=none;fillColor=none;align=left;verticalAlign=top;spacingLeft=4;spacingRight=4;overflow=hidden;rotatable=0;points=[[0,0.5],[1,0.5]];portConstraint=eastwest;fontSize=20;" vertex="1" parent="Suzx8Zcdtsd8IvIES5Vi-42">
          <mxGeometry y="60.11764705882353" width="185" height="30" as="geometry" />
        </mxCell>
        <mxCell id="Suzx8Zcdtsd8IvIES5Vi-45" value="-genre: string" style="text;strokeColor=none;fillColor=none;align=left;verticalAlign=top;spacingLeft=4;spacingRight=4;overflow=hidden;rotatable=0;points=[[0,0.5],[1,0.5]];portConstraint=eastwest;fontSize=20;" vertex="1" parent="Suzx8Zcdtsd8IvIES5Vi-42">
          <mxGeometry y="90.11764705882354" width="185" height="30" as="geometry" />
        </mxCell>
        <mxCell id="Suzx8Zcdtsd8IvIES5Vi-46" value="-description: string" style="text;strokeColor=none;fillColor=none;align=left;verticalAlign=top;spacingLeft=4;spacingRight=4;overflow=hidden;rotatable=0;points=[[0,0.5],[1,0.5]];portConstraint=eastwest;fontSize=20;" vertex="1" parent="Suzx8Zcdtsd8IvIES5Vi-42">
          <mxGeometry y="120.11764705882354" width="185" height="30" as="geometry" />
        </mxCell>
        <mxCell id="Suzx8Zcdtsd8IvIES5Vi-47" value="-releaseYear: int" style="text;strokeColor=none;fillColor=none;align=left;verticalAlign=top;spacingLeft=4;spacingRight=4;overflow=hidden;rotatable=0;points=[[0,0.5],[1,0.5]];portConstraint=eastwest;fontSize=20;" vertex="1" parent="Suzx8Zcdtsd8IvIES5Vi-42">
          <mxGeometry y="150.11764705882354" width="185" height="30" as="geometry" />
        </mxCell>
        <mxCell id="Suzx8Zcdtsd8IvIES5Vi-48" value="-studio: string" style="text;strokeColor=none;fillColor=none;align=left;verticalAlign=top;spacingLeft=4;spacingRight=4;overflow=hidden;rotatable=0;points=[[0,0.5],[1,0.5]];portConstraint=eastwest;fontSize=20;" vertex="1" parent="Suzx8Zcdtsd8IvIES5Vi-42">
          <mxGeometry y="180.11764705882354" width="185" height="30" as="geometry" />
        </mxCell>
        <mxCell id="Suzx8Zcdtsd8IvIES5Vi-49" value="-imageUrl: string" style="text;strokeColor=none;fillColor=none;align=left;verticalAlign=top;spacingLeft=4;spacingRight=4;overflow=hidden;rotatable=0;points=[[0,0.5],[1,0.5]];portConstraint=eastwest;fontSize=20;" vertex="1" parent="Suzx8Zcdtsd8IvIES5Vi-42">
          <mxGeometry y="210.11764705882354" width="185" height="30" as="geometry" />
        </mxCell>
        <mxCell id="Suzx8Zcdtsd8IvIES5Vi-50" style="line;strokeWidth=1;fillColor=none;align=left;verticalAlign=middle;spacingTop=-1;spacingLeft=3;spacingRight=3;rotatable=0;labelPosition=right;points=[];portConstraint=eastwest;strokeColor=inherit;fontSize=20;" vertex="1" parent="Suzx8Zcdtsd8IvIES5Vi-42">
          <mxGeometry y="240.11764705882354" width="185" height="15" as="geometry" />
        </mxCell>
        <mxCell id="Suzx8Zcdtsd8IvIES5Vi-51" value="&lt;&lt;interface&gt;&gt;&#xa;PaymentMethod" style="swimlane;fontStyle=1;align=center;verticalAlign=top;childLayout=stackLayout;horizontal=1;startSize=71;horizontalStack=0;resizeParent=1;resizeParentMax=0;resizeLast=0;collapsible=0;marginBottom=0;fontSize=20;" vertex="1" parent="1">
          <mxGeometry x="1109" y="926" width="401" height="126" as="geometry" />
        </mxCell>
        <mxCell id="Suzx8Zcdtsd8IvIES5Vi-52" style="line;strokeWidth=1;fillColor=none;align=left;verticalAlign=middle;spacingTop=-1;spacingLeft=3;spacingRight=3;rotatable=0;labelPosition=right;points=[];portConstraint=eastwest;strokeColor=inherit;fontSize=20;" vertex="1" parent="Suzx8Zcdtsd8IvIES5Vi-51">
          <mxGeometry y="71" width="401" height="8" as="geometry" />
        </mxCell>
        <mxCell id="Suzx8Zcdtsd8IvIES5Vi-53" value="+processPayment(amount: double) :  boolean" style="text;strokeColor=none;fillColor=none;align=left;verticalAlign=top;spacingLeft=4;spacingRight=4;overflow=hidden;rotatable=0;points=[[0,0.5],[1,0.5]];portConstraint=eastwest;fontSize=20;" vertex="1" parent="Suzx8Zcdtsd8IvIES5Vi-51">
          <mxGeometry y="79" width="401" height="47" as="geometry" />
        </mxCell>
        <mxCell id="Suzx8Zcdtsd8IvIES5Vi-54" value="CreditCard" style="swimlane;fontStyle=1;align=center;verticalAlign=top;childLayout=stackLayout;horizontal=1;startSize=40;horizontalStack=0;resizeParent=1;resizeParentMax=0;resizeLast=0;collapsible=0;marginBottom=0;fontSize=20;" vertex="1" parent="1">
          <mxGeometry x="907" y="1313" width="381" height="168" as="geometry" />
        </mxCell>
        <mxCell id="Suzx8Zcdtsd8IvIES5Vi-55" value="-cardNumber: string" style="text;strokeColor=none;fillColor=none;align=left;verticalAlign=top;spacingLeft=4;spacingRight=4;overflow=hidden;rotatable=0;points=[[0,0.5],[1,0.5]];portConstraint=eastwest;fontSize=20;" vertex="1" parent="Suzx8Zcdtsd8IvIES5Vi-54">
          <mxGeometry y="40" width="381" height="40" as="geometry" />
        </mxCell>
        <mxCell id="Suzx8Zcdtsd8IvIES5Vi-56" value="-expiryDate: string" style="text;strokeColor=none;fillColor=none;align=left;verticalAlign=top;spacingLeft=4;spacingRight=4;overflow=hidden;rotatable=0;points=[[0,0.5],[1,0.5]];portConstraint=eastwest;fontSize=20;" vertex="1" parent="Suzx8Zcdtsd8IvIES5Vi-54">
          <mxGeometry y="80" width="381" height="40" as="geometry" />
        </mxCell>
        <mxCell id="Suzx8Zcdtsd8IvIES5Vi-57" style="line;strokeWidth=1;fillColor=none;align=left;verticalAlign=middle;spacingTop=-1;spacingLeft=3;spacingRight=3;rotatable=0;labelPosition=right;points=[];portConstraint=eastwest;strokeColor=inherit;fontSize=20;" vertex="1" parent="Suzx8Zcdtsd8IvIES5Vi-54">
          <mxGeometry y="120" width="381" height="8" as="geometry" />
        </mxCell>
        <mxCell id="Suzx8Zcdtsd8IvIES5Vi-58" value="+processPayment(amount: double) :  boolean" style="text;strokeColor=none;fillColor=none;align=left;verticalAlign=top;spacingLeft=4;spacingRight=4;overflow=hidden;rotatable=0;points=[[0,0.5],[1,0.5]];portConstraint=eastwest;fontSize=20;" vertex="1" parent="Suzx8Zcdtsd8IvIES5Vi-54">
          <mxGeometry y="128" width="381" height="40" as="geometry" />
        </mxCell>
        <mxCell id="Suzx8Zcdtsd8IvIES5Vi-59" value="PayPal" style="swimlane;fontStyle=1;align=center;verticalAlign=top;childLayout=stackLayout;horizontal=1;startSize=45.333333333333336;horizontalStack=0;resizeParent=1;resizeParentMax=0;resizeLast=0;collapsible=0;marginBottom=0;fontSize=20;" vertex="1" parent="1">
          <mxGeometry x="1338" y="1325" width="364" height="143.33333333333334" as="geometry" />
        </mxCell>
        <mxCell id="Suzx8Zcdtsd8IvIES5Vi-60" value="-email: string" style="text;strokeColor=none;fillColor=none;align=left;verticalAlign=top;spacingLeft=4;spacingRight=4;overflow=hidden;rotatable=0;points=[[0,0.5],[1,0.5]];portConstraint=eastwest;fontSize=20;" vertex="1" parent="Suzx8Zcdtsd8IvIES5Vi-59">
          <mxGeometry y="45.333333333333336" width="364" height="45" as="geometry" />
        </mxCell>
        <mxCell id="Suzx8Zcdtsd8IvIES5Vi-61" style="line;strokeWidth=1;fillColor=none;align=left;verticalAlign=middle;spacingTop=-1;spacingLeft=3;spacingRight=3;rotatable=0;labelPosition=right;points=[];portConstraint=eastwest;strokeColor=inherit;fontSize=20;" vertex="1" parent="Suzx8Zcdtsd8IvIES5Vi-59">
          <mxGeometry y="90.33333333333334" width="364" height="8" as="geometry" />
        </mxCell>
        <mxCell id="Suzx8Zcdtsd8IvIES5Vi-62" value="+processPayment(amount: double) :  boolean" style="text;strokeColor=none;fillColor=none;align=left;verticalAlign=top;spacingLeft=4;spacingRight=4;overflow=hidden;rotatable=0;points=[[0,0.5],[1,0.5]];portConstraint=eastwest;fontSize=20;" vertex="1" parent="Suzx8Zcdtsd8IvIES5Vi-59">
          <mxGeometry y="98.33333333333334" width="364" height="45" as="geometry" />
        </mxCell>
        <mxCell id="Suzx8Zcdtsd8IvIES5Vi-63" value="Delivery" style="swimlane;fontStyle=1;align=center;verticalAlign=top;childLayout=stackLayout;horizontal=1;startSize=28.923076923076923;horizontalStack=0;resizeParent=1;resizeParentMax=0;resizeLast=0;collapsible=0;marginBottom=0;fontSize=20;" vertex="1" parent="1">
          <mxGeometry x="674" y="809" width="378" height="384.9230769230769" as="geometry" />
        </mxCell>
        <mxCell id="Suzx8Zcdtsd8IvIES5Vi-64" value="-deliveryId: int" style="text;strokeColor=none;fillColor=none;align=left;verticalAlign=top;spacingLeft=4;spacingRight=4;overflow=hidden;rotatable=0;points=[[0,0.5],[1,0.5]];portConstraint=eastwest;fontSize=20;" vertex="1" parent="Suzx8Zcdtsd8IvIES5Vi-63">
          <mxGeometry y="28.923076923076923" width="378" height="29" as="geometry" />
        </mxCell>
        <mxCell id="Suzx8Zcdtsd8IvIES5Vi-65" value="-shippingMethod: string" style="text;strokeColor=none;fillColor=none;align=left;verticalAlign=top;spacingLeft=4;spacingRight=4;overflow=hidden;rotatable=0;points=[[0,0.5],[1,0.5]];portConstraint=eastwest;fontSize=20;" vertex="1" parent="Suzx8Zcdtsd8IvIES5Vi-63">
          <mxGeometry y="57.92307692307692" width="378" height="29" as="geometry" />
        </mxCell>
        <mxCell id="Suzx8Zcdtsd8IvIES5Vi-66" value="-trackingNumber: string" style="text;strokeColor=none;fillColor=none;align=left;verticalAlign=top;spacingLeft=4;spacingRight=4;overflow=hidden;rotatable=0;points=[[0,0.5],[1,0.5]];portConstraint=eastwest;fontSize=20;" vertex="1" parent="Suzx8Zcdtsd8IvIES5Vi-63">
          <mxGeometry y="86.92307692307692" width="378" height="29" as="geometry" />
        </mxCell>
        <mxCell id="Suzx8Zcdtsd8IvIES5Vi-67" value="-shippingDate: Date" style="text;strokeColor=none;fillColor=none;align=left;verticalAlign=top;spacingLeft=4;spacingRight=4;overflow=hidden;rotatable=0;points=[[0,0.5],[1,0.5]];portConstraint=eastwest;fontSize=20;" vertex="1" parent="Suzx8Zcdtsd8IvIES5Vi-63">
          <mxGeometry y="115.92307692307692" width="378" height="29" as="geometry" />
        </mxCell>
        <mxCell id="Suzx8Zcdtsd8IvIES5Vi-68" value="-estimatedDeliveryDate: Date" style="text;strokeColor=none;fillColor=none;align=left;verticalAlign=top;spacingLeft=4;spacingRight=4;overflow=hidden;rotatable=0;points=[[0,0.5],[1,0.5]];portConstraint=eastwest;fontSize=20;" vertex="1" parent="Suzx8Zcdtsd8IvIES5Vi-63">
          <mxGeometry y="144.9230769230769" width="378" height="29" as="geometry" />
        </mxCell>
        <mxCell id="Suzx8Zcdtsd8IvIES5Vi-69" value="-deliveryStatus: enum" style="text;strokeColor=none;fillColor=none;align=left;verticalAlign=top;spacingLeft=4;spacingRight=4;overflow=hidden;rotatable=0;points=[[0,0.5],[1,0.5]];portConstraint=eastwest;fontSize=20;" vertex="1" parent="Suzx8Zcdtsd8IvIES5Vi-63">
          <mxGeometry y="173.9230769230769" width="378" height="29" as="geometry" />
        </mxCell>
        <mxCell id="Suzx8Zcdtsd8IvIES5Vi-70" style="line;strokeWidth=1;fillColor=none;align=left;verticalAlign=middle;spacingTop=-1;spacingLeft=3;spacingRight=3;rotatable=0;labelPosition=right;points=[];portConstraint=eastwest;strokeColor=inherit;fontSize=20;" vertex="1" parent="Suzx8Zcdtsd8IvIES5Vi-63">
          <mxGeometry y="202.9230769230769" width="378" height="8" as="geometry" />
        </mxCell>
        <mxCell id="Suzx8Zcdtsd8IvIES5Vi-71" value="+calculateTotal() : double" style="text;strokeColor=none;fillColor=none;align=left;verticalAlign=top;spacingLeft=4;spacingRight=4;overflow=hidden;rotatable=0;points=[[0,0.5],[1,0.5]];portConstraint=eastwest;fontSize=20;" vertex="1" parent="Suzx8Zcdtsd8IvIES5Vi-63">
          <mxGeometry y="210.9230769230769" width="378" height="29" as="geometry" />
        </mxCell>
        <mxCell id="Suzx8Zcdtsd8IvIES5Vi-72" value="+updateStatus(newStatus: string) :  void" style="text;strokeColor=none;fillColor=none;align=left;verticalAlign=top;spacingLeft=4;spacingRight=4;overflow=hidden;rotatable=0;points=[[0,0.5],[1,0.5]];portConstraint=eastwest;fontSize=20;" vertex="1" parent="Suzx8Zcdtsd8IvIES5Vi-63">
          <mxGeometry y="239.9230769230769" width="378" height="29" as="geometry" />
        </mxCell>
        <mxCell id="Suzx8Zcdtsd8IvIES5Vi-73" value="+setTrackingNumber(tracking: string) : :void" style="text;strokeColor=none;fillColor=none;align=left;verticalAlign=top;spacingLeft=4;spacingRight=4;overflow=hidden;rotatable=0;points=[[0,0.5],[1,0.5]];portConstraint=eastwest;fontSize=20;" vertex="1" parent="Suzx8Zcdtsd8IvIES5Vi-63">
          <mxGeometry y="268.9230769230769" width="378" height="29" as="geometry" />
        </mxCell>
        <mxCell id="Suzx8Zcdtsd8IvIES5Vi-74" value="+calculateEstimateDelivery() :  Date" style="text;strokeColor=none;fillColor=none;align=left;verticalAlign=top;spacingLeft=4;spacingRight=4;overflow=hidden;rotatable=0;points=[[0,0.5],[1,0.5]];portConstraint=eastwest;fontSize=20;" vertex="1" parent="Suzx8Zcdtsd8IvIES5Vi-63">
          <mxGeometry y="297.9230769230769" width="378" height="29" as="geometry" />
        </mxCell>
        <mxCell id="Suzx8Zcdtsd8IvIES5Vi-75" value="+notifyCustomer(event: string) :  void" style="text;strokeColor=none;fillColor=none;align=left;verticalAlign=top;spacingLeft=4;spacingRight=4;overflow=hidden;rotatable=0;points=[[0,0.5],[1,0.5]];portConstraint=eastwest;fontSize=20;" vertex="1" parent="Suzx8Zcdtsd8IvIES5Vi-63">
          <mxGeometry y="326.9230769230769" width="378" height="29" as="geometry" />
        </mxCell>
        <mxCell id="Suzx8Zcdtsd8IvIES5Vi-76" value="+getDeliveryDetails() :  string" style="text;strokeColor=none;fillColor=none;align=left;verticalAlign=top;spacingLeft=4;spacingRight=4;overflow=hidden;rotatable=0;points=[[0,0.5],[1,0.5]];portConstraint=eastwest;fontSize=20;" vertex="1" parent="Suzx8Zcdtsd8IvIES5Vi-63">
          <mxGeometry y="355.9230769230769" width="378" height="29" as="geometry" />
        </mxCell>
        <mxCell id="Suzx8Zcdtsd8IvIES5Vi-77" value="Review" style="swimlane;fontStyle=1;align=center;verticalAlign=top;childLayout=stackLayout;horizontal=1;startSize=28.571428571428573;horizontalStack=0;resizeParent=1;resizeParentMax=0;resizeLast=0;collapsible=0;marginBottom=0;fontSize=20;" vertex="1" parent="1">
          <mxGeometry x="40" y="809" width="395" height="413.57142857142856" as="geometry" />
        </mxCell>
        <mxCell id="Suzx8Zcdtsd8IvIES5Vi-78" value="-reviewId: int" style="text;strokeColor=none;fillColor=none;align=left;verticalAlign=top;spacingLeft=4;spacingRight=4;overflow=hidden;rotatable=0;points=[[0,0.5],[1,0.5]];portConstraint=eastwest;fontSize=20;" vertex="1" parent="Suzx8Zcdtsd8IvIES5Vi-77">
          <mxGeometry y="28.571428571428573" width="395" height="29" as="geometry" />
        </mxCell>
        <mxCell id="Suzx8Zcdtsd8IvIES5Vi-79" value="-productId: int" style="text;strokeColor=none;fillColor=none;align=left;verticalAlign=top;spacingLeft=4;spacingRight=4;overflow=hidden;rotatable=0;points=[[0,0.5],[1,0.5]];portConstraint=eastwest;fontSize=20;" vertex="1" parent="Suzx8Zcdtsd8IvIES5Vi-77">
          <mxGeometry y="57.57142857142857" width="395" height="29" as="geometry" />
        </mxCell>
        <mxCell id="Suzx8Zcdtsd8IvIES5Vi-80" value="-userId: int" style="text;strokeColor=none;fillColor=none;align=left;verticalAlign=top;spacingLeft=4;spacingRight=4;overflow=hidden;rotatable=0;points=[[0,0.5],[1,0.5]];portConstraint=eastwest;fontSize=20;" vertex="1" parent="Suzx8Zcdtsd8IvIES5Vi-77">
          <mxGeometry y="86.57142857142857" width="395" height="29" as="geometry" />
        </mxCell>
        <mxCell id="Suzx8Zcdtsd8IvIES5Vi-81" value="-rating: int" style="text;strokeColor=none;fillColor=none;align=left;verticalAlign=top;spacingLeft=4;spacingRight=4;overflow=hidden;rotatable=0;points=[[0,0.5],[1,0.5]];portConstraint=eastwest;fontSize=20;" vertex="1" parent="Suzx8Zcdtsd8IvIES5Vi-77">
          <mxGeometry y="115.57142857142857" width="395" height="29" as="geometry" />
        </mxCell>
        <mxCell id="Suzx8Zcdtsd8IvIES5Vi-82" value="-comment: string" style="text;strokeColor=none;fillColor=none;align=left;verticalAlign=top;spacingLeft=4;spacingRight=4;overflow=hidden;rotatable=0;points=[[0,0.5],[1,0.5]];portConstraint=eastwest;fontSize=20;" vertex="1" parent="Suzx8Zcdtsd8IvIES5Vi-77">
          <mxGeometry y="144.57142857142856" width="395" height="29" as="geometry" />
        </mxCell>
        <mxCell id="Suzx8Zcdtsd8IvIES5Vi-83" value="-reviewDate: Date" style="text;strokeColor=none;fillColor=none;align=left;verticalAlign=top;spacingLeft=4;spacingRight=4;overflow=hidden;rotatable=0;points=[[0,0.5],[1,0.5]];portConstraint=eastwest;fontSize=20;" vertex="1" parent="Suzx8Zcdtsd8IvIES5Vi-77">
          <mxGeometry y="173.57142857142856" width="395" height="29" as="geometry" />
        </mxCell>
        <mxCell id="Suzx8Zcdtsd8IvIES5Vi-84" value="-isApproved: boolean" style="text;strokeColor=none;fillColor=none;align=left;verticalAlign=top;spacingLeft=4;spacingRight=4;overflow=hidden;rotatable=0;points=[[0,0.5],[1,0.5]];portConstraint=eastwest;fontSize=20;" vertex="1" parent="Suzx8Zcdtsd8IvIES5Vi-77">
          <mxGeometry y="202.57142857142856" width="395" height="29" as="geometry" />
        </mxCell>
        <mxCell id="Suzx8Zcdtsd8IvIES5Vi-85" style="line;strokeWidth=1;fillColor=none;align=left;verticalAlign=middle;spacingTop=-1;spacingLeft=3;spacingRight=3;rotatable=0;labelPosition=right;points=[];portConstraint=eastwest;strokeColor=inherit;fontSize=20;" vertex="1" parent="Suzx8Zcdtsd8IvIES5Vi-77">
          <mxGeometry y="231.57142857142856" width="395" height="8" as="geometry" />
        </mxCell>
        <mxCell id="Suzx8Zcdtsd8IvIES5Vi-86" value="+approve() : void" style="text;strokeColor=none;fillColor=none;align=left;verticalAlign=top;spacingLeft=4;spacingRight=4;overflow=hidden;rotatable=0;points=[[0,0.5],[1,0.5]];portConstraint=eastwest;fontSize=20;" vertex="1" parent="Suzx8Zcdtsd8IvIES5Vi-77">
          <mxGeometry y="239.57142857142856" width="395" height="29" as="geometry" />
        </mxCell>
        <mxCell id="Suzx8Zcdtsd8IvIES5Vi-87" value="+disapprove() : void" style="text;strokeColor=none;fillColor=none;align=left;verticalAlign=top;spacingLeft=4;spacingRight=4;overflow=hidden;rotatable=0;points=[[0,0.5],[1,0.5]];portConstraint=eastwest;fontSize=20;" vertex="1" parent="Suzx8Zcdtsd8IvIES5Vi-77">
          <mxGeometry y="268.57142857142856" width="395" height="29" as="geometry" />
        </mxCell>
        <mxCell id="Suzx8Zcdtsd8IvIES5Vi-88" value="+updateComment(newComment: string) :  void" style="text;strokeColor=none;fillColor=none;align=left;verticalAlign=top;spacingLeft=4;spacingRight=4;overflow=hidden;rotatable=0;points=[[0,0.5],[1,0.5]];portConstraint=eastwest;fontSize=20;" vertex="1" parent="Suzx8Zcdtsd8IvIES5Vi-77">
          <mxGeometry y="297.57142857142856" width="395" height="29" as="geometry" />
        </mxCell>
        <mxCell id="Suzx8Zcdtsd8IvIES5Vi-89" value="+getReviewDetails() :  string" style="text;strokeColor=none;fillColor=none;align=left;verticalAlign=top;spacingLeft=4;spacingRight=4;overflow=hidden;rotatable=0;points=[[0,0.5],[1,0.5]];portConstraint=eastwest;fontSize=20;" vertex="1" parent="Suzx8Zcdtsd8IvIES5Vi-77">
          <mxGeometry y="326.57142857142856" width="395" height="29" as="geometry" />
        </mxCell>
        <mxCell id="Suzx8Zcdtsd8IvIES5Vi-90" value="+deleteReview() : void" style="text;strokeColor=none;fillColor=none;align=left;verticalAlign=top;spacingLeft=4;spacingRight=4;overflow=hidden;rotatable=0;points=[[0,0.5],[1,0.5]];portConstraint=eastwest;fontSize=20;" vertex="1" parent="Suzx8Zcdtsd8IvIES5Vi-77">
          <mxGeometry y="355.57142857142856" width="395" height="29" as="geometry" />
        </mxCell>
        <mxCell id="Suzx8Zcdtsd8IvIES5Vi-91" value="+approveReview() :  void" style="text;strokeColor=none;fillColor=none;align=left;verticalAlign=top;spacingLeft=4;spacingRight=4;overflow=hidden;rotatable=0;points=[[0,0.5],[1,0.5]];portConstraint=eastwest;fontSize=20;" vertex="1" parent="Suzx8Zcdtsd8IvIES5Vi-77">
          <mxGeometry y="384.57142857142856" width="395" height="29" as="geometry" />
        </mxCell>
        <mxCell id="Suzx8Zcdtsd8IvIES5Vi-97" value="composed of" style="curved=1;startArrow=diamondThin;startSize=14;startFill=1;endArrow=none;exitX=0;exitY=0.7;entryX=0.5;entryY=0;rounded=0;fontSize=20;" edge="1" parent="1" source="Suzx8Zcdtsd8IvIES5Vi-16" target="Suzx8Zcdtsd8IvIES5Vi-22">
          <mxGeometry relative="1" as="geometry">
            <Array as="points">
              <mxPoint x="544" y="761" />
            </Array>
          </mxGeometry>
        </mxCell>
        <mxCell id="Suzx8Zcdtsd8IvIES5Vi-98" value="1" style="edgeLabel;resizable=0;labelBackgroundColor=none;fontSize=20;align=right;verticalAlign=top;" vertex="1" parent="Suzx8Zcdtsd8IvIES5Vi-97">
          <mxGeometry x="-1" relative="1" as="geometry" />
        </mxCell>
        <mxCell id="Suzx8Zcdtsd8IvIES5Vi-99" value="*" style="edgeLabel;resizable=0;labelBackgroundColor=none;fontSize=20;align=left;verticalAlign=bottom;" vertex="1" parent="Suzx8Zcdtsd8IvIES5Vi-97">
          <mxGeometry x="1" relative="1" as="geometry" />
        </mxCell>
        <mxCell id="Suzx8Zcdtsd8IvIES5Vi-103" value="belongs to" style="curved=1;startArrow=diamondThin;startSize=14;startFill=0;endArrow=none;exitX=0;exitY=0.96;entryX=0.5;entryY=0;rounded=0;fontSize=20;" edge="1" parent="1" source="Suzx8Zcdtsd8IvIES5Vi-26" target="Suzx8Zcdtsd8IvIES5Vi-38">
          <mxGeometry relative="1" as="geometry">
            <Array as="points">
              <mxPoint x="218" y="1553" />
            </Array>
          </mxGeometry>
        </mxCell>
        <mxCell id="Suzx8Zcdtsd8IvIES5Vi-104" value="1" style="edgeLabel;resizable=0;labelBackgroundColor=none;fontSize=20;align=right;verticalAlign=top;" vertex="1" parent="Suzx8Zcdtsd8IvIES5Vi-103">
          <mxGeometry x="-1" relative="1" as="geometry" />
        </mxCell>
        <mxCell id="Suzx8Zcdtsd8IvIES5Vi-105" value="1" style="edgeLabel;resizable=0;labelBackgroundColor=none;fontSize=20;align=left;verticalAlign=bottom;" vertex="1" parent="Suzx8Zcdtsd8IvIES5Vi-103">
          <mxGeometry x="1" relative="1" as="geometry" />
        </mxCell>
        <mxCell id="Suzx8Zcdtsd8IvIES5Vi-106" value="stocked in" style="curved=1;startArrow=diamondThin;startSize=14;startFill=0;endArrow=none;exitX=0.88;exitY=1;entryX=0.5;entryY=0;rounded=0;fontSize=20;" edge="1" parent="1" source="Suzx8Zcdtsd8IvIES5Vi-26" target="Suzx8Zcdtsd8IvIES5Vi-34">
          <mxGeometry relative="1" as="geometry">
            <Array as="points">
              <mxPoint x="479" y="1553" />
            </Array>
          </mxGeometry>
        </mxCell>
        <mxCell id="Suzx8Zcdtsd8IvIES5Vi-107" value="*" style="edgeLabel;resizable=0;labelBackgroundColor=none;fontSize=20;align=right;verticalAlign=top;" vertex="1" parent="Suzx8Zcdtsd8IvIES5Vi-106">
          <mxGeometry x="-1" relative="1" as="geometry" />
        </mxCell>
        <mxCell id="Suzx8Zcdtsd8IvIES5Vi-108" value="1" style="edgeLabel;resizable=0;labelBackgroundColor=none;fontSize=20;align=left;verticalAlign=bottom;" vertex="1" parent="Suzx8Zcdtsd8IvIES5Vi-106">
          <mxGeometry x="1" relative="1" as="geometry" />
        </mxCell>
        <mxCell id="Suzx8Zcdtsd8IvIES5Vi-109" value="based on" style="curved=1;startArrow=none;endArrow=open;endSize=12;exitX=1;exitY=0.71;entryX=0.5;entryY=0;rounded=0;fontSize=20;" edge="1" parent="1" source="Suzx8Zcdtsd8IvIES5Vi-26" target="Suzx8Zcdtsd8IvIES5Vi-42">
          <mxGeometry relative="1" as="geometry">
            <Array as="points">
              <mxPoint x="710" y="1553" />
            </Array>
          </mxGeometry>
        </mxCell>
        <mxCell id="Suzx8Zcdtsd8IvIES5Vi-110" value="*" style="edgeLabel;resizable=0;labelBackgroundColor=none;fontSize=20;align=left;verticalAlign=top;" vertex="1" parent="Suzx8Zcdtsd8IvIES5Vi-109">
          <mxGeometry x="-1" relative="1" as="geometry" />
        </mxCell>
        <mxCell id="Suzx8Zcdtsd8IvIES5Vi-111" value="1" style="edgeLabel;resizable=0;labelBackgroundColor=none;fontSize=20;align=right;verticalAlign=bottom;" vertex="1" parent="Suzx8Zcdtsd8IvIES5Vi-109">
          <mxGeometry x="1" relative="1" as="geometry">
            <mxPoint y="-20" as="offset" />
          </mxGeometry>
        </mxCell>
        <mxCell id="Suzx8Zcdtsd8IvIES5Vi-115" value="" style="curved=1;dashed=1;startArrow=block;startSize=16;startFill=0;endArrow=none;exitX=0.33;exitY=1;entryX=0.5;entryY=0;rounded=0;fontSize=20;" edge="1" parent="1" source="Suzx8Zcdtsd8IvIES5Vi-51" target="Suzx8Zcdtsd8IvIES5Vi-54">
          <mxGeometry relative="1" as="geometry">
            <Array as="points">
              <mxPoint x="1098" y="1241" />
            </Array>
          </mxGeometry>
        </mxCell>
        <mxCell id="Suzx8Zcdtsd8IvIES5Vi-116" value="" style="curved=1;dashed=1;startArrow=block;startSize=16;startFill=0;endArrow=none;exitX=0.66;exitY=1;entryX=0.5;entryY=0;rounded=0;fontSize=20;" edge="1" parent="1" source="Suzx8Zcdtsd8IvIES5Vi-51" target="Suzx8Zcdtsd8IvIES5Vi-59">
          <mxGeometry relative="1" as="geometry">
            <Array as="points">
              <mxPoint x="1521" y="1241" />
            </Array>
          </mxGeometry>
        </mxCell>
        <mxCell id="nVT65IbfopRYeCozm8Kw-2" value="" style="endArrow=none;endFill=1;endSize=12;html=1;rounded=0;entryX=0.614;entryY=-0.002;entryDx=0;entryDy=0;entryPerimeter=0;exitX=0.002;exitY=-0.053;exitDx=0;exitDy=0;exitPerimeter=0;startFill=0;fontSize=20;" edge="1" parent="1" source="Suzx8Zcdtsd8IvIES5Vi-10" target="Suzx8Zcdtsd8IvIES5Vi-77">
          <mxGeometry width="160" relative="1" as="geometry">
            <mxPoint x="550" y="400" as="sourcePoint" />
            <mxPoint x="590" y="610" as="targetPoint" />
          </mxGeometry>
        </mxCell>
        <mxCell id="nVT65IbfopRYeCozm8Kw-3" value="writes&amp;nbsp;" style="edgeLabel;html=1;align=center;verticalAlign=middle;resizable=0;points=[];fontSize=20;" connectable="0" vertex="1" parent="nVT65IbfopRYeCozm8Kw-2">
          <mxGeometry x="-0.7893" y="5" relative="1" as="geometry">
            <mxPoint as="offset" />
          </mxGeometry>
        </mxCell>
        <mxCell id="nVT65IbfopRYeCozm8Kw-4" value="1" style="text;html=1;align=center;verticalAlign=middle;resizable=0;points=[];autosize=1;strokeColor=none;fillColor=none;fontSize=20;" vertex="1" parent="1">
          <mxGeometry x="533" y="360.93" width="30" height="40" as="geometry" />
        </mxCell>
        <mxCell id="nVT65IbfopRYeCozm8Kw-5" value="" style="endArrow=open;endFill=1;endSize=12;html=1;rounded=0;entryX=0.38;entryY=0.974;entryDx=0;entryDy=0;entryPerimeter=0;exitX=0.622;exitY=0.004;exitDx=0;exitDy=0;exitPerimeter=0;fontSize=20;" edge="1" parent="1" source="Suzx8Zcdtsd8IvIES5Vi-63" target="Suzx8Zcdtsd8IvIES5Vi-21">
          <mxGeometry width="160" relative="1" as="geometry">
            <mxPoint x="860" y="790" as="sourcePoint" />
            <mxPoint x="1020" y="790" as="targetPoint" />
          </mxGeometry>
        </mxCell>
        <mxCell id="nVT65IbfopRYeCozm8Kw-6" value="1" style="text;html=1;align=center;verticalAlign=middle;resizable=0;points=[];autosize=1;strokeColor=none;fillColor=none;fontSize=20;" vertex="1" parent="1">
          <mxGeometry x="895" y="723" width="30" height="40" as="geometry" />
        </mxCell>
        <mxCell id="DpqZJ-V11iDZShAQC8rA-1" value="&lt;font&gt;0..*&lt;/font&gt;" style="text;html=1;align=center;verticalAlign=middle;resizable=0;points=[];autosize=1;strokeColor=none;fillColor=none;fontSize=20;" vertex="1" parent="1">
          <mxGeometry x="225" y="743" width="50" height="40" as="geometry" />
        </mxCell>
        <mxCell id="nVT65IbfopRYeCozm8Kw-7" value="1" style="text;html=1;align=center;verticalAlign=middle;resizable=0;points=[];autosize=1;strokeColor=none;fillColor=none;fontSize=20;" vertex="1" parent="1">
          <mxGeometry x="875" y="773" width="30" height="40" as="geometry" />
        </mxCell>
        <mxCell id="nVT65IbfopRYeCozm8Kw-9" value="include" style="text;html=1;align=center;verticalAlign=middle;resizable=0;points=[];autosize=1;strokeColor=none;fillColor=none;fontSize=20;" vertex="1" parent="1">
          <mxGeometry x="897" y="753" width="90" height="40" as="geometry" />
        </mxCell>
        <mxCell id="nVT65IbfopRYeCozm8Kw-11" value="" style="endArrow=none;endFill=1;endSize=12;html=1;rounded=0;exitX=1;exitY=0.5;exitDx=0;exitDy=0;startFill=0;fontSize=20;entryX=0.602;entryY=0.009;entryDx=0;entryDy=0;entryPerimeter=0;" edge="1" parent="1" source="Suzx8Zcdtsd8IvIES5Vi-19" target="Suzx8Zcdtsd8IvIES5Vi-51">
          <mxGeometry width="160" relative="1" as="geometry">
            <mxPoint x="1430" y="440.57" as="sourcePoint" />
            <mxPoint x="1370" y="920" as="targetPoint" />
          </mxGeometry>
        </mxCell>
        <mxCell id="nVT65IbfopRYeCozm8Kw-13" value="uses&amp;nbsp;" style="edgeLabel;html=1;align=center;verticalAlign=middle;resizable=0;points=[];fontSize=20;" connectable="0" vertex="1" parent="nVT65IbfopRYeCozm8Kw-11">
          <mxGeometry x="-0.064" y="3" relative="1" as="geometry">
            <mxPoint as="offset" />
          </mxGeometry>
        </mxCell>
        <mxCell id="nVT65IbfopRYeCozm8Kw-14" value="1" style="text;html=1;align=center;verticalAlign=middle;resizable=0;points=[];autosize=1;strokeColor=none;fillColor=none;fontSize=20;" vertex="1" parent="1">
          <mxGeometry x="1085" y="643" width="30" height="40" as="geometry" />
        </mxCell>
        <mxCell id="nVT65IbfopRYeCozm8Kw-15" value="1" style="text;html=1;align=center;verticalAlign=middle;resizable=0;points=[];autosize=1;strokeColor=none;fillColor=none;fontSize=20;" vertex="1" parent="1">
          <mxGeometry x="1375" y="873" width="30" height="40" as="geometry" />
        </mxCell>
        <mxCell id="nVT65IbfopRYeCozm8Kw-16" value="" style="endArrow=none;endFill=1;endSize=12;html=1;rounded=0;startFill=0;fontSize=20;" edge="1" parent="1" target="Suzx8Zcdtsd8IvIES5Vi-26">
          <mxGeometry width="160" relative="1" as="geometry">
            <mxPoint x="560" y="1070" as="sourcePoint" />
            <mxPoint x="340" y="1447" as="targetPoint" />
          </mxGeometry>
        </mxCell>
        <mxCell id="nVT65IbfopRYeCozm8Kw-18" value="1" style="text;html=1;align=center;verticalAlign=middle;resizable=0;points=[];autosize=1;strokeColor=none;fillColor=none;fontSize=20;" vertex="1" parent="1">
          <mxGeometry x="515" y="1063" width="30" height="40" as="geometry" />
        </mxCell>
        <mxCell id="nVT65IbfopRYeCozm8Kw-19" value="0..*" style="text;html=1;align=center;verticalAlign=middle;resizable=0;points=[];autosize=1;strokeColor=none;fillColor=none;fontSize=20;" vertex="1" parent="1">
          <mxGeometry x="485" y="1233" width="50" height="40" as="geometry" />
        </mxCell>
        <mxCell id="nVT65IbfopRYeCozm8Kw-20" value="" style="endArrow=none;endFill=1;endSize=12;html=1;rounded=0;exitX=1;exitY=0.5;exitDx=0;exitDy=0;startFill=0;fontSize=20;entryX=0.602;entryY=0.009;entryDx=0;entryDy=0;entryPerimeter=0;" edge="1" parent="1">
          <mxGeometry width="160" relative="1" as="geometry">
            <mxPoint x="1072" y="671" as="sourcePoint" />
            <mxPoint x="1360" y="937" as="targetPoint" />
          </mxGeometry>
        </mxCell>
        <mxCell id="nVT65IbfopRYeCozm8Kw-21" value="uses&amp;nbsp;" style="edgeLabel;html=1;align=center;verticalAlign=middle;resizable=0;points=[];fontSize=20;" connectable="0" vertex="1" parent="nVT65IbfopRYeCozm8Kw-20">
          <mxGeometry x="-0.064" y="3" relative="1" as="geometry">
            <mxPoint as="offset" />
          </mxGeometry>
        </mxCell>
        <mxCell id="nVT65IbfopRYeCozm8Kw-22" value="" style="endArrow=none;endFill=1;endSize=12;html=1;rounded=0;startFill=0;fontSize=20;entryX=0.286;entryY=-0.01;entryDx=0;entryDy=0;entryPerimeter=0;" edge="1" parent="1" target="Suzx8Zcdtsd8IvIES5Vi-16">
          <mxGeometry width="160" relative="1" as="geometry">
            <mxPoint x="770" y="450" as="sourcePoint" />
            <mxPoint x="880" y="520" as="targetPoint" />
          </mxGeometry>
        </mxCell>
        <mxCell id="nVT65IbfopRYeCozm8Kw-24" value="places" style="edgeLabel;html=1;align=center;verticalAlign=middle;resizable=0;points=[];fontSize=20;" connectable="0" vertex="1" parent="nVT65IbfopRYeCozm8Kw-22">
          <mxGeometry x="0.0443" y="1" relative="1" as="geometry">
            <mxPoint as="offset" />
          </mxGeometry>
        </mxCell>
        <mxCell id="nVT65IbfopRYeCozm8Kw-25" value="1" style="text;html=1;align=center;verticalAlign=middle;resizable=0;points=[];autosize=1;strokeColor=none;fillColor=none;fontSize=20;" vertex="1" parent="1">
          <mxGeometry x="749" y="443.86" width="30" height="40" as="geometry" />
        </mxCell>
        <mxCell id="nVT65IbfopRYeCozm8Kw-26" value="0..*" style="text;html=1;align=center;verticalAlign=middle;resizable=0;points=[];autosize=1;strokeColor=none;fillColor=none;fontSize=20;" vertex="1" parent="1">
          <mxGeometry x="885" y="493" width="50" height="40" as="geometry" />
        </mxCell>
        <mxCell id="nVT65IbfopRYeCozm8Kw-29" value="" style="endArrow=none;endFill=1;endSize=12;html=1;rounded=0;exitX=0.511;exitY=1.092;exitDx=0;exitDy=0;exitPerimeter=0;startFill=0;fontSize=20;" edge="1" parent="1" source="Suzx8Zcdtsd8IvIES5Vi-91" target="Suzx8Zcdtsd8IvIES5Vi-26">
          <mxGeometry width="160" relative="1" as="geometry">
            <mxPoint x="490" y="820" as="sourcePoint" />
            <mxPoint x="190" y="1227" as="targetPoint" />
          </mxGeometry>
        </mxCell>
        <mxCell id="nVT65IbfopRYeCozm8Kw-31" value="targets" style="edgeLabel;html=1;align=center;verticalAlign=middle;resizable=0;points=[];fontSize=20;" connectable="0" vertex="1" parent="nVT65IbfopRYeCozm8Kw-29">
          <mxGeometry x="0.0523" y="1" relative="1" as="geometry">
            <mxPoint as="offset" />
          </mxGeometry>
        </mxCell>
        <mxCell id="nVT65IbfopRYeCozm8Kw-32" value="1" style="text;html=1;align=center;verticalAlign=middle;resizable=0;points=[];autosize=1;strokeColor=none;fillColor=none;fontSize=20;" vertex="1" parent="1">
          <mxGeometry x="275" y="1243" width="30" height="40" as="geometry" />
        </mxCell>
        <mxCell id="nVT65IbfopRYeCozm8Kw-33" value="*" style="text;html=1;align=center;verticalAlign=middle;resizable=0;points=[];autosize=1;strokeColor=none;fillColor=none;fontSize=20;" vertex="1" parent="1">
          <mxGeometry x="202" y="1203" width="30" height="40" as="geometry" />
        </mxCell>
        <mxCell id="DpqZJ-V11iDZShAQC8rA-2" value="&lt;font&gt;Refers to&lt;/font&gt;" style="text;html=1;align=center;verticalAlign=middle;resizable=0;points=[];autosize=1;strokeColor=none;fillColor=none;fontSize=20;" vertex="1" parent="1">
          <mxGeometry x="480" y="1158.92" width="100" height="40" as="geometry" />
        </mxCell>
      </root>
    </mxGraphModel>
  </diagram>
</mxfile>
